<svg width="1100" height="250" xmlns="http://www.w3.org/2000/svg" version="1.1"><defs><clipPath id="clip"><text x="690.0" y="145.0" style="font-size:250px; font-family:DM Serif Text; fill:white;; text-anchor:middle; dominant-baseline:middle;">PreFab</text><rect x="50" y="25.0" width="200" height="200" /></clipPath></defs><g clip-path="url(#clip)"><rect width="100%" height="100%" fill="#facc15" fill-opacity="0"/><path d="M966,212 L965,213 L964,213 L963,214 L962,214 L958,218 L958,219 L957,220 L957,221 L956,222 L956,223 L955,224 L955,225 L954,226 L954,227 L953,228 L953,230 L952,231 L952,233 L951,234 L951,236 L950,237 L950,239 L949,240 L949,242 L948,243 L948,244 L947,245 L947,246 L944,249 L994,249 L994,248 L995,247 L995,243 L994,242 L994,239 L993,238 L993,235 L992,234 L992,231 L991,230 L991,227 L990,226 L990,221 L989,220 L989,218 L988,217 L987,217 L986,216 L984,216 L983,215 L981,215 L980,214 L978,214 L977,213 L974,213 L973,212Z" fill="#eeeeee"/><path d="M541,97 L540,98 L537,98 L536,99 L535,99 L534,100 L533,100 L531,102 L531,103 L530,104 L530,110 L531,111 L531,113 L532,114 L532,116 L533,117 L533,118 L534,119 L534,120 L535,121 L535,122 L537,124 L537,125 L545,133 L546,133 L549,136 L550,136 L552,138 L553,138 L555,140 L556,140 L559,143 L559,144 L560,145 L560,171 L561,172 L561,175 L562,176 L562,178 L564,180 L564,181 L566,183 L567,183 L569,185 L571,185 L572,186 L579,186 L581,184 L582,184 L582,183 L584,181 L584,179 L585,178 L585,175 L586,174 L586,161 L585,160 L585,155 L584,154 L584,151 L583,150 L583,149 L580,146 L579,146 L577,144 L576,144 L575,143 L574,143 L569,138 L569,128 L570,127 L570,123 L569,122 L569,117 L568,116 L568,114 L567,113 L567,111 L566,110 L566,109 L564,107 L564,106 L559,101 L558,101 L557,100 L556,100 L555,99 L554,99 L553,98 L551,98 L550,97Z" fill="#eeeeee"/><path d="M1098,62 L1095,65 L1095,67 L1094,68 L1094,85 L1097,88 L1099,88 L1099,62Z" fill="#eeeeee"/><path d="M0,62 L0,88 L4,88 L5,87 L10,87 L11,86 L14,86 L15,85 L16,85 L17,84 L18,84 L20,82 L20,81 L21,80 L21,71 L20,70 L20,68 L16,64 L14,64 L13,63 L11,63 L10,62Z" fill="#eeeeee"/><path d="M523,23 L522,24 L521,24 L521,25 L520,26 L520,37 L521,38 L521,40 L523,42 L523,43 L527,47 L527,48 L548,69 L549,69 L551,71 L552,71 L553,72 L554,72 L555,73 L563,73 L564,72 L566,72 L568,70 L569,70 L569,69 L571,67 L571,66 L572,65 L572,61 L573,60 L573,58 L572,57 L572,52 L571,51 L571,49 L570,48 L570,47 L569,46 L569,45 L563,39 L562,39 L561,38 L560,38 L558,36 L557,36 L556,35 L555,35 L554,34 L553,34 L551,32 L550,32 L549,31 L548,31 L547,30 L546,30 L545,29 L544,29 L543,28 L542,28 L541,27 L540,27 L539,26 L538,26 L537,25 L535,25 L534,24 L530,24 L529,23Z" fill="#eeeeee"/><path d="M1032,0 L1032,1 L1033,2 L1033,16 L1032,17 L1032,21 L1031,22 L1031,30 L1032,31 L1035,31 L1036,30 L1038,30 L1039,29 L1041,29 L1042,28 L1045,28 L1046,27 L1051,27 L1052,26 L1061,26 L1062,27 L1065,27 L1068,30 L1067,31 L1067,34 L1066,35 L1066,38 L1065,39 L1065,41 L1064,42 L1064,45 L1063,46 L1063,55 L1065,57 L1085,57 L1086,56 L1087,56 L1089,54 L1089,43 L1088,42 L1088,40 L1087,39 L1087,38 L1086,37 L1086,36 L1082,32 L1081,32 L1079,30 L1077,30 L1076,29 L1075,29 L1074,28 L1073,28 L1071,26 L1071,22 L1072,21 L1072,19 L1073,18 L1073,16 L1074,15 L1074,5 L1073,4 L1073,3 L1071,1 L1071,0Z" fill="#eeeeee"/><path d="M658,0 L658,2 L659,3 L659,4 L660,5 L660,6 L666,12 L667,12 L668,13 L669,13 L670,14 L672,14 L673,15 L685,15 L686,14 L689,14 L690,13 L692,13 L693,12 L695,12 L696,11 L697,11 L698,10 L699,10 L700,9 L701,9 L702,8 L703,8 L704,7 L705,7 L708,4 L709,4 L709,3 L710,2 L710,0Z" fill="#eeeeee"/><path d="M551,0 L552,1 L552,3 L553,4 L553,5 L554,6 L554,7 L555,8 L555,9 L557,11 L557,12 L565,20 L566,20 L575,29 L576,29 L579,32 L580,32 L581,33 L582,33 L583,34 L584,34 L585,35 L587,35 L588,36 L589,36 L590,37 L592,37 L593,38 L594,38 L596,40 L597,40 L599,42 L599,43 L601,45 L601,47 L602,48 L602,50 L603,51 L603,57 L604,58 L604,72 L603,73 L603,75 L602,76 L602,77 L601,78 L601,79 L600,80 L600,81 L599,82 L599,83 L598,84 L598,85 L597,86 L597,89 L596,90 L596,94 L595,95 L595,101 L594,102 L594,108 L593,109 L593,114 L592,115 L592,119 L591,120 L591,125 L590,126 L590,134 L591,135 L591,137 L594,140 L595,140 L596,141 L599,141 L600,142 L612,142 L613,141 L620,141 L621,140 L627,140 L628,141 L631,141 L632,142 L633,142 L635,144 L636,144 L639,147 L640,147 L642,149 L643,149 L646,152 L647,152 L649,154 L650,154 L654,158 L655,158 L659,162 L659,163 L666,170 L667,170 L669,172 L670,172 L671,173 L672,173 L673,174 L674,174 L675,175 L676,175 L681,180 L681,181 L682,182 L682,184 L683,185 L683,190 L684,191 L684,198 L685,199 L685,203 L686,204 L686,208 L685,209 L684,209 L683,210 L680,210 L679,211 L676,211 L675,212 L672,212 L671,213 L667,213 L666,214 L664,214 L663,215 L661,215 L660,216 L659,216 L657,218 L657,219 L656,220 L656,225 L655,226 L655,236 L656,237 L656,245 L657,246 L657,249 L709,249 L709,248 L708,247 L708,246 L705,243 L705,242 L701,238 L701,237 L698,234 L698,233 L695,230 L695,229 L694,228 L694,227 L692,225 L692,224 L691,223 L691,222 L690,221 L690,220 L689,219 L689,217 L688,216 L688,215 L687,214 L687,212 L686,211 L686,209 L687,208 L688,208 L689,207 L693,207 L694,206 L698,206 L699,205 L704,205 L705,204 L716,204 L717,205 L719,205 L720,206 L721,206 L727,212 L727,213 L728,214 L728,215 L729,216 L729,218 L730,219 L730,221 L731,222 L731,224 L732,225 L732,227 L733,228 L733,230 L734,231 L734,233 L735,234 L735,236 L737,238 L737,239 L739,241 L740,241 L741,242 L743,242 L744,243 L745,243 L746,244 L748,244 L749,245 L750,245 L751,246 L752,246 L755,249 L880,249 L884,245 L885,245 L886,244 L887,244 L888,243 L891,243 L892,242 L895,242 L896,241 L899,241 L900,240 L902,240 L903,239 L904,239 L905,238 L906,238 L910,234 L910,233 L912,231 L912,230 L913,229 L913,227 L914,226 L914,224 L915,223 L915,221 L916,220 L916,217 L917,216 L917,212 L918,211 L918,207 L919,206 L919,201 L920,200 L920,196 L921,195 L921,192 L922,191 L922,190 L923,189 L923,187 L929,181 L930,181 L931,180 L932,180 L933,179 L943,179 L944,180 L946,180 L947,181 L948,181 L949,182 L951,182 L952,183 L955,183 L956,184 L957,183 L960,183 L961,182 L962,182 L963,181 L964,181 L966,179 L967,179 L969,177 L970,177 L971,176 L972,176 L973,175 L974,175 L975,174 L977,174 L978,173 L980,173 L981,172 L983,172 L984,171 L986,171 L987,170 L989,170 L990,169 L991,169 L996,164 L996,163 L997,162 L997,160 L998,159 L998,158 L999,157 L999,155 L1000,154 L1000,152 L1001,151 L1001,148 L1002,147 L1002,144 L1003,143 L1003,141 L1004,140 L1004,138 L1005,137 L1005,136 L1006,135 L1006,134 L1007,133 L1007,132 L1008,131 L1009,131 L1011,129 L1015,129 L1016,128 L1024,128 L1025,129 L1028,129 L1029,130 L1031,130 L1035,134 L1035,135 L1036,136 L1036,140 L1037,141 L1037,144 L1036,145 L1036,150 L1035,151 L1035,153 L1034,154 L1034,156 L1033,157 L1033,158 L1030,161 L1030,162 L1029,163 L1028,163 L1025,166 L1024,166 L1023,167 L1021,167 L1020,168 L1019,168 L1018,169 L1015,169 L1014,170 L1012,170 L1011,171 L1009,171 L1008,172 L1006,172 L1005,173 L1004,173 L1003,174 L1002,174 L998,178 L998,179 L997,180 L997,181 L996,182 L996,184 L995,185 L995,187 L994,188 L994,190 L993,191 L993,195 L992,196 L992,200 L991,201 L991,215 L992,216 L994,216 L995,217 L998,217 L999,218 L1010,218 L1011,217 L1014,217 L1015,216 L1017,216 L1018,215 L1019,215 L1020,214 L1021,214 L1026,209 L1026,208 L1027,207 L1027,206 L1028,205 L1028,203 L1029,202 L1029,200 L1030,199 L1030,197 L1031,196 L1031,194 L1032,193 L1032,190 L1033,189 L1033,187 L1034,186 L1034,184 L1035,183 L1035,182 L1036,181 L1036,180 L1037,179 L1037,178 L1044,171 L1045,171 L1047,169 L1048,169 L1049,168 L1051,168 L1052,167 L1054,167 L1055,166 L1058,166 L1059,165 L1071,165 L1072,166 L1073,166 L1074,167 L1075,167 L1079,171 L1079,172 L1080,173 L1080,177 L1079,178 L1079,179 L1077,181 L1077,182 L1074,185 L1073,185 L1067,191 L1066,191 L1055,202 L1054,202 L1050,206 L1049,206 L1046,209 L1045,209 L1042,212 L1041,212 L1035,218 L1035,219 L1033,221 L1033,222 L1032,223 L1032,225 L1031,226 L1031,228 L1030,229 L1030,233 L1029,234 L1029,243 L1030,244 L1030,246 L1031,247 L1031,248 L1032,249 L1070,249 L1062,241 L1062,240 L1061,239 L1061,235 L1060,234 L1060,233 L1061,232 L1061,228 L1062,227 L1062,225 L1063,224 L1063,223 L1064,222 L1064,221 L1065,220 L1065,219 L1066,218 L1066,217 L1070,213 L1070,212 L1073,209 L1074,209 L1079,204 L1080,204 L1084,200 L1085,200 L1090,195 L1091,195 L1094,192 L1095,192 L1096,191 L1097,191 L1098,190 L1099,190 L1099,132 L1088,132 L1087,131 L1085,131 L1084,130 L1082,130 L1078,126 L1078,124 L1077,123 L1077,122 L1078,121 L1078,118 L1079,117 L1079,116 L1080,115 L1080,114 L1081,113 L1081,112 L1082,111 L1082,110 L1083,109 L1083,108 L1084,107 L1084,105 L1085,104 L1085,99 L1084,98 L1079,98 L1078,99 L1077,99 L1076,100 L1075,100 L1074,101 L1073,101 L1070,104 L1069,104 L1063,110 L1062,110 L1060,112 L1058,112 L1057,113 L1053,113 L1052,112 L1051,112 L1050,111 L1049,111 L1047,109 L1047,108 L1046,107 L1046,106 L1045,105 L1045,103 L1044,102 L1044,99 L1043,98 L1043,94 L1042,93 L1042,89 L1041,88 L1041,86 L1038,83 L1022,83 L1021,84 L1012,84 L1011,85 L1009,85 L1008,86 L1008,87 L1007,88 L1007,91 L1006,92 L1006,98 L1005,99 L1005,107 L1004,108 L1004,113 L1003,114 L1003,116 L1002,117 L1002,118 L999,121 L998,121 L997,122 L994,122 L993,121 L991,121 L987,117 L987,115 L986,114 L986,92 L985,91 L985,88 L983,86 L983,85 L976,78 L976,77 L975,76 L975,75 L974,74 L974,72 L975,71 L975,70 L978,67 L979,67 L980,66 L985,66 L986,67 L987,67 L991,71 L991,72 L995,76 L996,76 L997,77 L1000,77 L1001,76 L1002,76 L1002,74 L1003,73 L1003,66 L1002,65 L1002,64 L1001,63 L1001,62 L991,52 L991,51 L990,50 L990,49 L988,47 L988,46 L987,45 L987,44 L985,42 L985,41 L980,36 L979,36 L978,35 L977,35 L976,34 L974,34 L973,33 L970,33 L969,32 L964,32 L963,31 L961,31 L960,30 L959,30 L954,25 L954,24 L953,23 L953,19 L952,18 L952,16 L953,15 L953,12 L954,11 L954,10 L957,7 L959,7 L960,6 L963,6 L964,5 L977,5 L978,4 L984,4 L985,3 L988,3 L989,2 L990,2 L991,1 L992,1 L993,0 L942,0 L941,1 L940,1 L939,2 L937,2 L936,3 L934,3 L933,4 L931,4 L930,5 L929,5 L928,6 L927,6 L926,7 L925,7 L918,14 L918,15 L915,18 L915,19 L912,22 L912,23 L910,25 L910,26 L907,29 L907,30 L906,31 L906,32 L904,34 L904,35 L903,36 L903,37 L902,38 L902,39 L901,40 L901,41 L898,44 L897,44 L896,45 L889,45 L888,44 L885,44 L884,43 L882,43 L881,42 L878,42 L877,41 L874,41 L873,40 L870,40 L869,39 L867,39 L866,38 L864,38 L863,37 L862,37 L857,32 L857,31 L856,30 L856,25 L858,23 L858,22 L859,21 L860,21 L863,18 L864,18 L865,17 L866,17 L868,15 L869,15 L873,11 L873,10 L875,8 L875,7 L876,6 L876,5 L877,4 L877,3 L879,1 L879,0 L756,0 L763,7 L763,8 L764,9 L765,9 L768,12 L769,12 L770,13 L771,13 L772,14 L773,14 L774,15 L776,15 L777,16 L780,16 L781,17 L785,17 L786,18 L790,18 L791,19 L793,19 L794,20 L795,20 L796,21 L797,21 L801,25 L801,26 L802,27 L802,30 L803,31 L803,32 L802,33 L802,36 L801,37 L801,38 L800,39 L800,40 L799,41 L799,42 L795,46 L795,47 L788,54 L788,55 L785,58 L785,59 L782,62 L782,63 L779,66 L779,67 L773,73 L772,73 L769,76 L768,76 L767,77 L766,77 L765,78 L764,78 L763,79 L752,79 L751,78 L748,78 L747,77 L745,77 L744,76 L742,76 L741,75 L739,75 L738,74 L737,74 L736,73 L735,73 L734,72 L733,72 L730,69 L730,68 L729,67 L729,66 L730,65 L730,63 L731,62 L731,60 L732,59 L732,58 L733,57 L733,56 L734,55 L734,53 L735,52 L735,49 L736,48 L736,43 L737,42 L737,30 L736,29 L736,23 L735,22 L735,18 L734,17 L734,14 L733,13 L733,10 L732,9 L732,7 L731,6 L731,5 L728,2 L725,2 L724,3 L722,3 L721,4 L721,9 L722,10 L722,17 L721,18 L721,19 L720,20 L720,21 L717,24 L717,25 L711,31 L711,32 L707,36 L707,37 L705,39 L705,40 L703,42 L703,43 L701,45 L701,46 L696,51 L695,51 L694,52 L692,52 L691,51 L689,51 L688,50 L687,50 L686,49 L685,49 L684,48 L683,48 L682,47 L681,47 L680,46 L679,46 L678,45 L677,45 L676,44 L675,44 L673,42 L672,42 L671,41 L670,41 L668,39 L667,39 L664,36 L663,36 L659,32 L658,32 L648,22 L648,21 L645,18 L645,17 L643,15 L643,14 L641,12 L641,11 L639,9 L639,8 L637,6 L637,5 L635,3 L635,2 L634,1 L634,0Z" fill="#eeeeee"/><path d="M476,0 L476,5 L475,6 L475,15 L476,16 L476,18 L480,22 L486,22 L487,21 L491,21 L492,20 L496,20 L497,19 L504,19 L505,18 L512,18 L513,17 L515,17 L517,15 L517,14 L518,13 L518,10 L519,9 L519,6 L520,5 L520,1 L521,0Z" fill="#eeeeee"/><path d="M418,0 L418,1 L416,3 L415,3 L413,5 L412,5 L411,6 L410,6 L409,7 L408,7 L407,8 L406,8 L404,10 L403,10 L401,12 L401,13 L400,14 L400,24 L401,25 L401,27 L402,28 L402,30 L403,31 L403,32 L405,34 L405,35 L408,38 L409,38 L411,40 L414,40 L415,41 L418,41 L419,40 L420,40 L421,39 L422,39 L422,38 L424,36 L424,34 L425,33 L425,30 L426,29 L426,25 L427,24 L427,20 L428,19 L428,17 L429,16 L429,14 L431,12 L431,11 L438,4 L439,4 L443,0Z" fill="#eeeeee"/><path d="M325,0 L324,1 L323,1 L322,2 L321,2 L319,4 L319,6 L318,7 L318,14 L319,15 L319,18 L320,19 L320,21 L321,22 L321,23 L322,24 L322,25 L323,26 L323,28 L324,29 L324,31 L325,32 L325,34 L326,35 L326,38 L327,39 L327,46 L328,47 L328,52 L327,53 L327,57 L326,58 L326,60 L325,61 L325,62 L324,63 L324,64 L323,65 L323,66 L322,67 L322,68 L321,69 L321,70 L320,71 L320,72 L319,73 L319,74 L318,75 L318,76 L317,77 L317,78 L316,79 L316,80 L315,81 L315,83 L314,84 L314,85 L313,86 L313,88 L312,89 L312,91 L311,92 L311,95 L310,96 L310,98 L309,99 L309,101 L308,102 L308,104 L307,105 L307,107 L306,108 L306,109 L304,111 L304,112 L301,115 L300,115 L298,117 L297,117 L296,118 L294,118 L293,119 L290,119 L289,120 L286,120 L285,121 L282,121 L281,122 L280,122 L279,123 L278,123 L277,124 L276,124 L274,126 L273,126 L271,128 L270,128 L269,129 L268,129 L267,130 L266,130 L265,131 L264,131 L263,132 L261,132 L260,133 L258,133 L257,134 L255,134 L254,135 L252,135 L251,136 L249,136 L248,137 L246,137 L245,138 L243,138 L242,139 L241,139 L240,140 L239,140 L238,141 L236,141 L235,142 L234,142 L233,143 L232,143 L231,144 L227,144 L223,140 L223,139 L221,137 L221,136 L220,135 L220,133 L219,132 L219,126 L218,125 L218,124 L219,123 L219,116 L220,115 L220,112 L221,111 L221,108 L222,107 L222,100 L221,99 L221,98 L215,92 L215,91 L214,90 L214,88 L213,87 L213,81 L214,80 L214,78 L215,77 L215,76 L216,75 L216,74 L221,69 L221,68 L224,65 L225,65 L226,64 L226,63 L233,56 L233,55 L236,52 L236,51 L238,49 L238,48 L239,47 L239,46 L240,45 L240,44 L241,43 L241,41 L242,40 L242,37 L241,36 L241,35 L235,29 L234,29 L233,28 L232,28 L231,27 L230,27 L229,26 L228,26 L227,25 L225,25 L224,24 L215,24 L214,25 L213,25 L208,30 L208,31 L207,32 L207,33 L206,34 L206,36 L205,37 L205,38 L204,39 L204,42 L203,43 L203,45 L202,46 L202,48 L201,49 L201,50 L200,51 L200,53 L199,54 L199,55 L198,56 L198,57 L196,59 L196,60 L182,74 L182,75 L180,77 L180,79 L179,80 L179,89 L181,91 L181,92 L183,94 L184,94 L187,97 L188,97 L190,99 L191,99 L195,103 L195,104 L196,105 L196,106 L197,107 L197,109 L198,110 L198,114 L197,115 L197,118 L196,119 L196,121 L195,122 L195,123 L193,125 L193,126 L190,129 L190,130 L185,135 L185,136 L181,140 L181,141 L180,142 L180,143 L179,144 L179,145 L178,146 L178,155 L179,156 L179,159 L180,160 L180,162 L181,163 L181,165 L182,166 L182,171 L183,172 L183,173 L182,174 L182,177 L181,178 L181,179 L178,182 L178,183 L172,189 L172,190 L171,191 L171,193 L170,194 L170,199 L171,200 L171,201 L173,203 L174,203 L175,204 L177,204 L178,205 L180,205 L181,206 L185,206 L186,207 L191,207 L193,209 L193,219 L192,220 L192,225 L191,226 L191,228 L190,229 L190,231 L189,232 L189,233 L188,234 L188,235 L180,243 L179,243 L177,245 L176,245 L174,247 L173,247 L172,248 L171,248 L170,249 L213,249 L213,248 L215,246 L215,245 L216,244 L216,243 L217,242 L217,227 L216,226 L216,220 L215,219 L215,218 L214,217 L214,216 L212,214 L211,214 L210,213 L209,213 L208,212 L206,212 L205,211 L202,211 L201,210 L198,210 L197,209 L193,209 L192,208 L192,189 L193,188 L193,184 L194,183 L194,182 L195,181 L195,180 L197,178 L197,177 L211,163 L211,162 L223,150 L224,150 L226,148 L228,148 L229,149 L230,149 L233,152 L234,152 L245,163 L245,164 L247,166 L247,167 L248,168 L248,170 L249,171 L249,178 L248,179 L248,180 L247,181 L247,182 L246,183 L246,184 L244,186 L244,187 L241,190 L241,191 L239,193 L239,194 L238,195 L238,196 L237,197 L237,199 L236,200 L236,204 L237,205 L237,206 L245,214 L245,215 L246,216 L246,217 L247,218 L247,222 L246,223 L246,224 L245,225 L245,226 L244,227 L244,228 L239,233 L239,234 L233,240 L233,241 L232,242 L232,243 L231,244 L231,247 L232,248 L232,249 L283,249 L281,249 L280,248 L278,248 L277,247 L276,247 L275,246 L274,246 L273,245 L272,245 L268,241 L268,240 L267,239 L267,238 L266,237 L266,236 L265,235 L265,233 L264,232 L264,222 L265,221 L265,220 L266,219 L266,218 L270,214 L271,214 L272,213 L273,213 L274,212 L276,212 L277,211 L286,211 L287,212 L290,212 L291,213 L293,213 L294,214 L295,214 L296,215 L297,215 L299,217 L300,217 L304,221 L304,222 L306,224 L306,225 L307,226 L307,227 L309,229 L310,229 L311,228 L311,227 L312,226 L312,222 L313,221 L313,204 L314,203 L314,198 L315,197 L315,194 L316,193 L316,190 L317,189 L317,188 L318,187 L318,186 L319,185 L319,184 L320,183 L320,182 L323,179 L323,178 L330,171 L330,170 L333,167 L333,166 L335,164 L335,163 L336,162 L336,161 L337,160 L337,159 L338,158 L338,157 L339,156 L339,155 L340,154 L340,153 L341,152 L341,151 L343,149 L343,148 L345,146 L346,146 L348,144 L350,144 L351,143 L361,143 L362,144 L363,144 L366,147 L366,148 L368,150 L368,151 L369,152 L369,153 L370,154 L370,155 L371,156 L371,157 L372,158 L372,159 L374,161 L374,162 L377,165 L378,165 L382,169 L382,170 L383,171 L383,172 L382,173 L382,175 L380,177 L379,177 L378,178 L366,178 L365,179 L363,179 L362,180 L361,180 L360,181 L359,181 L354,186 L354,188 L353,189 L353,199 L354,200 L354,202 L355,203 L355,205 L356,206 L356,207 L357,208 L357,209 L358,210 L358,211 L359,212 L359,214 L360,215 L360,216 L361,217 L361,226 L360,227 L360,229 L359,230 L359,231 L357,233 L357,234 L354,237 L354,238 L349,243 L348,243 L346,245 L345,245 L344,246 L343,246 L342,247 L340,247 L339,248 L336,248 L335,249 L330,249 L386,249 L385,248 L385,244 L384,243 L384,241 L383,240 L383,239 L382,238 L382,237 L381,236 L381,235 L380,234 L380,232 L379,231 L379,230 L378,229 L378,221 L379,220 L379,219 L381,217 L381,216 L386,211 L387,211 L388,210 L393,210 L394,211 L395,211 L396,212 L397,212 L404,219 L404,220 L418,234 L418,235 L419,236 L419,237 L420,238 L420,240 L421,241 L421,244 L420,245 L420,248 L419,249 L443,249 L444,248 L444,247 L445,246 L445,237 L444,236 L444,235 L443,234 L443,233 L442,232 L442,231 L441,230 L441,229 L440,228 L440,227 L439,226 L439,224 L438,223 L438,211 L439,210 L439,199 L438,198 L438,195 L437,194 L437,192 L436,191 L436,190 L435,189 L435,187 L434,186 L434,185 L433,184 L433,182 L432,181 L432,178 L431,177 L431,164 L433,162 L434,162 L435,161 L437,161 L438,160 L440,160 L441,159 L442,159 L443,158 L444,158 L445,157 L446,157 L449,154 L449,153 L452,150 L452,149 L453,148 L453,147 L455,145 L455,144 L458,141 L458,140 L461,137 L462,137 L464,135 L470,135 L475,140 L475,141 L476,142 L476,143 L477,144 L477,145 L478,146 L478,148 L479,149 L479,151 L480,152 L480,153 L481,154 L481,156 L482,157 L482,158 L483,159 L483,160 L485,162 L485,163 L488,166 L489,166 L491,168 L492,168 L493,169 L494,169 L499,174 L499,177 L498,178 L498,179 L495,182 L491,182 L490,181 L488,181 L487,180 L485,180 L484,179 L483,179 L482,178 L480,178 L479,177 L476,177 L475,176 L469,176 L468,177 L466,177 L464,179 L463,179 L462,180 L462,181 L461,182 L461,183 L460,184 L460,185 L459,186 L459,191 L458,192 L458,197 L459,198 L459,204 L460,205 L460,209 L461,210 L461,212 L462,213 L462,215 L463,216 L463,217 L464,218 L464,219 L465,220 L465,221 L474,230 L474,231 L475,232 L475,233 L476,234 L476,236 L477,237 L477,248 L476,249 L521,249 L521,244 L522,243 L522,232 L521,231 L521,228 L520,227 L520,226 L519,225 L519,224 L518,224 L517,223 L516,223 L515,222 L513,222 L512,221 L509,221 L508,220 L506,220 L505,219 L504,219 L500,215 L500,214 L499,213 L499,204 L500,203 L500,202 L502,200 L503,200 L504,199 L506,199 L507,200 L508,200 L509,201 L510,201 L516,207 L516,208 L518,210 L518,211 L520,213 L520,214 L521,215 L521,216 L525,220 L528,220 L529,221 L533,221 L534,222 L539,222 L540,223 L542,223 L543,224 L544,224 L547,227 L547,228 L548,229 L548,231 L549,232 L549,240 L550,241 L550,246 L551,247 L551,249 L633,249 L632,248 L632,247 L631,246 L631,245 L630,244 L630,243 L629,242 L629,240 L628,239 L628,235 L627,234 L627,233 L628,232 L628,228 L629,227 L629,226 L635,220 L636,220 L637,219 L638,219 L639,218 L640,218 L641,217 L643,217 L644,216 L645,216 L646,215 L648,215 L651,212 L651,203 L650,202 L650,200 L649,199 L649,198 L647,196 L646,196 L645,195 L643,195 L642,194 L640,194 L639,195 L635,195 L634,196 L633,196 L632,197 L631,197 L630,198 L629,198 L627,200 L626,200 L623,203 L622,203 L619,206 L618,206 L616,208 L615,208 L613,210 L612,210 L611,211 L610,211 L609,212 L607,212 L606,213 L605,213 L604,214 L602,214 L601,215 L598,215 L597,216 L595,216 L594,217 L592,217 L591,218 L588,218 L587,219 L582,219 L581,220 L576,220 L575,219 L568,219 L567,218 L564,218 L563,217 L561,217 L556,212 L556,211 L555,210 L555,209 L554,208 L554,206 L553,205 L553,202 L552,201 L552,200 L551,199 L551,198 L550,197 L550,196 L549,195 L549,194 L546,191 L545,191 L543,189 L542,189 L541,188 L540,188 L539,187 L538,187 L537,186 L536,186 L535,185 L534,185 L533,184 L532,184 L531,183 L530,183 L529,182 L528,182 L527,181 L526,181 L525,180 L524,180 L523,179 L521,179 L520,178 L519,178 L518,177 L517,177 L516,176 L515,176 L513,174 L512,174 L507,169 L507,164 L508,163 L508,159 L509,158 L509,154 L510,153 L510,148 L511,147 L511,139 L510,138 L510,135 L509,134 L509,132 L508,131 L508,130 L507,129 L507,128 L504,125 L504,124 L500,120 L500,119 L497,116 L497,115 L496,114 L496,113 L495,112 L495,109 L498,106 L499,106 L500,105 L501,105 L502,104 L503,104 L504,103 L505,103 L506,102 L507,102 L509,100 L510,100 L512,98 L513,98 L513,97 L515,95 L515,90 L514,89 L514,87 L513,86 L513,85 L512,84 L512,83 L511,82 L511,81 L510,80 L510,79 L509,78 L509,77 L508,76 L508,75 L507,74 L507,73 L506,72 L506,71 L505,70 L505,68 L504,67 L504,66 L503,65 L503,64 L502,63 L502,62 L501,61 L501,60 L500,59 L500,58 L498,56 L498,55 L496,53 L495,53 L493,51 L491,51 L490,50 L485,50 L484,51 L483,51 L474,60 L474,61 L471,64 L470,64 L468,66 L467,66 L466,67 L465,67 L464,68 L461,68 L460,69 L457,69 L456,70 L453,70 L452,71 L451,71 L449,73 L448,73 L443,78 L443,79 L435,87 L434,87 L422,99 L422,100 L421,101 L421,102 L420,103 L420,105 L419,106 L419,112 L420,113 L420,114 L421,115 L421,116 L426,121 L427,121 L433,127 L433,128 L434,129 L434,130 L435,131 L435,140 L434,141 L434,145 L433,146 L433,150 L432,151 L432,156 L431,157 L431,160 L429,162 L428,162 L427,163 L422,163 L421,164 L411,164 L410,165 L393,165 L392,164 L390,164 L387,161 L387,159 L386,158 L386,156 L385,155 L385,153 L384,152 L384,151 L383,150 L383,149 L381,147 L381,146 L377,142 L376,142 L373,139 L373,138 L371,136 L371,129 L372,128 L372,127 L373,126 L373,125 L374,124 L374,123 L378,119 L378,118 L387,109 L387,108 L389,106 L389,105 L391,103 L391,102 L392,101 L392,100 L393,99 L393,98 L394,97 L394,96 L395,95 L395,94 L396,93 L396,92 L397,91 L397,90 L398,89 L398,88 L399,87 L399,86 L400,85 L400,82 L401,81 L401,72 L400,71 L400,68 L399,67 L399,66 L397,64 L397,63 L394,60 L393,60 L392,59 L391,59 L390,58 L384,58 L382,60 L382,61 L381,62 L381,74 L380,75 L380,78 L379,79 L379,80 L378,81 L378,82 L377,83 L377,84 L372,89 L371,89 L369,91 L368,91 L367,92 L366,92 L365,93 L364,93 L363,94 L361,94 L360,95 L351,95 L350,94 L349,94 L348,93 L347,93 L339,85 L339,84 L337,82 L337,81 L336,80 L336,79 L335,78 L335,77 L334,76 L334,75 L333,74 L333,71 L332,70 L332,62 L333,61 L333,60 L339,54 L340,54 L341,53 L342,53 L343,52 L344,52 L345,51 L347,51 L348,50 L351,50 L352,49 L354,49 L355,48 L358,48 L359,47 L361,47 L363,45 L364,45 L364,44 L365,43 L365,22 L366,21 L366,19 L367,18 L367,17 L373,11 L374,11 L376,9 L377,9 L378,8 L379,8 L380,7 L381,7 L385,3 L385,0Z" fill="#eeeeee"/><path d="M233,0 L235,2 L236,2 L238,4 L239,4 L240,5 L241,5 L242,6 L243,6 L244,7 L245,7 L251,13 L251,14 L252,15 L252,36 L253,37 L253,38 L255,40 L255,41 L257,43 L257,44 L258,45 L258,46 L260,48 L260,50 L261,51 L261,52 L262,53 L262,57 L263,58 L263,61 L262,62 L262,65 L260,67 L260,68 L255,73 L254,73 L251,76 L250,76 L247,79 L246,79 L241,84 L241,85 L239,87 L239,88 L238,89 L238,94 L240,96 L242,96 L243,97 L245,97 L246,98 L250,98 L251,99 L261,99 L262,98 L264,98 L268,94 L268,93 L269,92 L269,91 L270,90 L270,88 L271,87 L271,84 L272,83 L272,80 L273,79 L273,77 L274,76 L274,74 L275,73 L275,72 L276,71 L276,70 L279,67 L279,66 L287,58 L287,57 L292,52 L292,51 L295,48 L295,47 L297,45 L297,44 L298,43 L298,42 L299,41 L299,40 L300,39 L300,38 L301,37 L301,35 L302,34 L302,32 L303,31 L303,27 L304,26 L304,19 L303,18 L303,15 L302,14 L302,12 L301,11 L301,10 L299,8 L299,7 L297,5 L296,5 L294,3 L293,3 L292,2 L290,2 L289,1 L287,1 L286,0Z" fill="#eeeeee"/><path d="M3,0 L3,5 L4,6 L4,8 L5,9 L5,10 L6,11 L6,12 L8,14 L8,15 L9,16 L10,16 L14,20 L15,20 L17,22 L18,22 L24,28 L24,29 L25,30 L25,31 L26,32 L26,35 L27,36 L27,39 L28,40 L28,44 L29,45 L29,49 L30,50 L30,51 L31,52 L31,53 L32,54 L32,55 L34,57 L35,57 L37,59 L38,59 L40,61 L41,61 L42,62 L43,62 L49,68 L49,70 L50,71 L50,74 L49,75 L49,76 L48,77 L48,78 L43,83 L42,83 L41,84 L40,84 L38,86 L37,86 L36,87 L35,87 L34,88 L33,88 L31,90 L30,90 L30,91 L29,92 L29,93 L28,94 L28,97 L27,98 L27,123 L26,124 L26,125 L24,127 L23,127 L22,128 L21,128 L20,129 L18,129 L17,130 L13,130 L12,131 L4,131 L3,132 L0,132 L0,189 L4,189 L5,188 L10,188 L11,189 L15,189 L16,190 L17,190 L18,191 L19,191 L22,194 L22,195 L23,196 L23,199 L22,200 L22,201 L10,213 L10,214 L8,216 L8,217 L7,218 L7,220 L6,221 L6,223 L5,224 L5,227 L4,228 L4,233 L3,234 L3,244 L2,245 L2,249 L34,249 L34,248 L33,247 L33,223 L34,222 L34,220 L35,219 L35,218 L38,215 L42,215 L43,216 L44,216 L52,224 L52,225 L63,236 L64,236 L72,244 L72,245 L75,248 L75,249 L148,249 L149,248 L150,248 L152,246 L153,246 L156,243 L156,242 L157,241 L157,239 L158,238 L158,233 L159,232 L159,221 L158,220 L158,216 L157,215 L157,214 L154,211 L153,211 L152,210 L148,210 L147,209 L142,209 L141,210 L137,210 L136,211 L135,211 L134,212 L133,212 L132,213 L131,213 L128,216 L128,217 L126,219 L126,220 L125,221 L125,222 L124,223 L124,224 L123,225 L123,226 L122,227 L122,228 L121,229 L121,231 L120,232 L120,233 L118,235 L118,236 L116,238 L115,238 L114,239 L113,239 L112,240 L108,240 L107,239 L105,239 L104,238 L103,238 L102,237 L101,237 L100,236 L99,236 L93,230 L93,229 L91,227 L91,226 L90,225 L90,224 L89,223 L89,221 L88,220 L88,219 L87,218 L87,215 L86,214 L86,212 L85,211 L85,209 L84,208 L84,207 L83,206 L83,205 L82,204 L82,203 L76,197 L75,197 L73,195 L71,195 L70,194 L69,194 L68,193 L66,193 L65,192 L63,192 L62,191 L60,191 L59,190 L58,190 L57,189 L55,189 L53,187 L52,187 L46,181 L46,179 L45,178 L45,172 L46,171 L46,168 L47,167 L47,166 L48,165 L48,163 L49,162 L49,161 L50,160 L50,159 L51,158 L51,157 L53,155 L53,154 L54,153 L54,152 L56,150 L56,149 L64,141 L65,141 L66,140 L68,140 L69,139 L74,139 L75,140 L76,140 L79,143 L79,144 L80,145 L80,146 L81,147 L81,149 L82,150 L82,152 L83,153 L83,155 L84,156 L84,157 L89,162 L91,162 L92,163 L97,163 L98,162 L101,162 L102,161 L104,161 L105,160 L106,160 L107,159 L109,159 L110,158 L111,158 L112,157 L114,157 L115,156 L126,156 L127,157 L129,157 L130,158 L132,158 L133,159 L135,159 L136,160 L139,160 L140,161 L144,161 L145,160 L147,160 L148,159 L149,159 L153,155 L153,154 L155,152 L155,151 L156,150 L156,149 L157,148 L157,146 L158,145 L158,141 L159,140 L159,132 L158,131 L158,119 L157,118 L157,114 L158,113 L158,105 L159,104 L159,93 L158,92 L158,89 L157,88 L157,86 L156,85 L156,84 L155,83 L155,81 L154,80 L154,79 L153,78 L153,77 L152,76 L152,75 L151,74 L151,73 L150,72 L150,71 L148,69 L148,68 L146,66 L146,65 L137,56 L136,56 L128,48 L128,44 L130,42 L131,42 L132,41 L137,41 L138,42 L141,42 L142,43 L153,43 L154,42 L155,42 L158,39 L158,38 L160,36 L160,35 L161,34 L161,33 L162,32 L162,30 L163,29 L163,28 L168,23 L169,23 L170,22 L171,22 L172,21 L175,21 L176,20 L178,20 L179,19 L182,19 L183,18 L186,18 L187,17 L189,17 L190,16 L192,16 L193,15 L194,15 L195,14 L196,14 L197,13 L198,13 L199,12 L200,12 L212,0 L169,0 L166,3 L166,4 L165,5 L165,6 L164,7 L164,9 L163,10 L163,12 L162,13 L162,14 L161,15 L161,16 L158,19 L157,19 L156,20 L155,20 L154,21 L145,21 L144,20 L142,20 L141,19 L140,19 L135,14 L135,12 L134,11 L134,10 L135,9 L135,7 L140,2 L141,2 L142,1 L143,1 L144,0 L145,0 L76,0 L78,2 L78,3 L80,5 L80,6 L83,9 L84,9 L86,11 L87,11 L88,12 L89,12 L90,13 L91,13 L92,14 L93,14 L94,15 L95,15 L96,16 L97,16 L99,18 L100,18 L103,21 L103,22 L104,23 L104,24 L105,25 L105,30 L104,31 L104,33 L102,35 L102,36 L101,37 L101,38 L99,40 L99,42 L98,43 L98,48 L99,49 L99,50 L101,52 L101,53 L104,56 L104,57 L105,58 L105,59 L106,60 L106,62 L107,63 L107,67 L108,68 L108,88 L109,89 L109,90 L113,94 L115,94 L116,95 L117,95 L118,96 L120,96 L121,97 L122,97 L123,98 L125,98 L126,99 L127,99 L128,100 L129,100 L130,101 L131,101 L132,102 L133,102 L139,108 L139,110 L140,111 L140,113 L139,114 L139,116 L137,118 L137,119 L130,126 L129,126 L127,128 L126,128 L125,129 L124,129 L123,130 L122,130 L121,131 L119,131 L118,132 L114,132 L113,133 L110,133 L109,132 L104,132 L103,131 L100,131 L99,130 L98,130 L94,126 L94,125 L93,124 L93,118 L94,117 L94,112 L95,111 L95,101 L93,99 L92,99 L91,98 L90,98 L89,97 L87,97 L86,96 L85,96 L84,95 L83,95 L82,94 L81,94 L75,88 L75,86 L74,85 L74,69 L75,68 L75,63 L76,62 L76,58 L77,57 L77,48 L76,47 L76,44 L75,43 L75,41 L74,40 L74,39 L73,38 L73,36 L72,35 L72,34 L71,33 L71,32 L69,30 L69,29 L66,26 L65,26 L63,24 L61,24 L60,23 L59,23 L58,22 L56,22 L55,21 L53,21 L52,20 L50,20 L49,19 L47,19 L46,18 L45,18 L44,17 L43,17 L37,11 L37,10 L36,9 L36,8 L35,7 L35,4 L34,3 L34,0Z" fill="#eeeeee"/></g><text x="690.0" y="145.0" style="font-size:250px; font-family:DM Serif Text; fill:white;; text-anchor:middle; dominant-baseline:middle;; fill:#eeeeee; fill-opacity:1; stroke:#eeeeee; stroke-width:0;">PreFab</text><rect x="50" y="25.0" width="200" height="200" style="fill:#eeeeee; fill-opacity:0; stroke:#eeeeee; stroke-width:0;"/></svg>