<?xml version="1.0" encoding="UTF-8"?>
<!-- Generated by Pixelmator Pro 3.7 -->
<svg width="200" height="200" viewBox="0 0 200 200" xmlns="http://www.w3.org/2000/svg">
    <clipPath id="clipPath1">
        <path d="M 0 0 L 200 0 L 200 200 L 0 200 Z"/>
    </clipPath>
    <g id="pattern" clip-path="url(#clipPath1)">
        <path id="Rectangle" fill="#4338ca" fill-rule="evenodd" stroke="none" d="M 0 200 L 200 200 L 200 0 L 0 0 Z"/>
        <path id="path1" fill="#facc15" stroke="#000000" stroke-width="5" d="M 174 177 L 173 178 L 171 178 L 170 179 L 169 179 L 168 180 L 167 180 L 165 182 L 164 182 L 163 183 L 163 184 L 160 187 L 160 188 L 159 189 L 159 190 L 158 191 L 158 192 L 157 193 L 157 195 L 156 196 L 156 198 L 155 199 L 155 210 L 156 211 L 156 212 L 158 214 L 159 214 L 160 215 L 166 215 L 167 214 L 170 214 L 171 213 L 173 213 L 174 212 L 176 212 L 177 211 L 178 211 L 179 210 L 181 210 L 182 209 L 183 209 L 184 208 L 185 208 L 187 206 L 188 206 L 189 205 L 190 205 L 196 199 L 196 198 L 197 197 L 197 196 L 198 195 L 198 193 L 199 192 L 199 188 L 198 187 L 198 185 L 197 184 L 197 183 L 194 180 L 193 180 L 192 179 L 191 179 L 190 178 L 188 178 L 187 177 Z"/>
        <path id="path2" fill="#facc15" stroke="#000000" stroke-width="5" d="M 1049 145 L 1046 148 L 1046 149 L 1044 151 L 1044 152 L 1042 154 L 1042 155 L 1041 156 L 1041 158 L 1040 159 L 1040 161 L 1039 162 L 1039 168 L 1038 169 L 1038 189 L 1037 190 L 1037 198 L 1036 199 L 1036 204 L 1035 205 L 1035 207 L 1034 208 L 1034 211 L 1033 212 L 1033 219 L 1036 222 L 1038 222 L 1039 223 L 1043 223 L 1044 222 L 1049 222 Z"/>
        <path id="path3" fill="#facc15" stroke="#000000" stroke-width="5" d="M 982 144 L 981 145 L 978 145 L 977 146 L 976 146 L 975 147 L 974 147 L 972 149 L 972 150 L 971 151 L 971 152 L 970 153 L 970 155 L 969 156 L 969 158 L 968 159 L 968 161 L 967 162 L 967 164 L 966 165 L 966 167 L 965 168 L 965 170 L 964 171 L 964 172 L 963 173 L 963 174 L 962 175 L 962 176 L 961 177 L 961 178 L 960 179 L 960 180 L 959 181 L 959 182 L 957 184 L 957 185 L 955 187 L 955 188 L 949 194 L 948 194 L 946 196 L 945 196 L 944 197 L 943 197 L 942 198 L 941 198 L 940 199 L 939 199 L 938 200 L 936 200 L 935 201 L 934 201 L 933 202 L 931 202 L 929 204 L 928 204 L 924 208 L 924 209 L 921 212 L 921 213 L 914 220 L 913 220 L 911 222 L 910 222 L 909 223 L 908 223 L 907 224 L 906 224 L 957 224 L 957 222 L 958 221 L 958 220 L 959 219 L 959 218 L 960 217 L 960 216 L 964 212 L 965 212 L 967 210 L 968 210 L 969 209 L 971 209 L 972 208 L 974 208 L 975 207 L 977 207 L 978 206 L 981 206 L 982 205 L 984 205 L 985 204 L 986 204 L 987 203 L 988 203 L 989 202 L 990 202 L 993 199 L 993 198 L 994 197 L 994 196 L 995 195 L 995 192 L 996 191 L 996 187 L 997 186 L 997 182 L 998 181 L 998 178 L 999 177 L 999 174 L 1000 173 L 1000 170 L 1001 169 L 1001 166 L 1002 165 L 1002 160 L 1003 159 L 1003 155 L 1002 154 L 1002 152 L 1001 151 L 1001 150 L 997 146 L 996 146 L 995 145 L 993 145 L 992 144 Z"/>
        <path id="path4" fill="#facc15" stroke="#000000" stroke-width="5" d="M 231 111 L 230 112 L 227 112 L 226 113 L 225 113 L 224 114 L 223 114 L 222 115 L 221 115 L 220 116 L 219 116 L 216 119 L 215 119 L 215 120 L 213 122 L 213 123 L 212 124 L 212 126 L 211 127 L 211 134 L 212 135 L 212 139 L 213 140 L 213 142 L 214 143 L 214 145 L 215 146 L 215 147 L 216 148 L 216 149 L 217 150 L 217 151 L 219 153 L 219 154 L 222 157 L 223 157 L 225 159 L 226 159 L 227 160 L 228 160 L 229 161 L 230 161 L 231 162 L 232 162 L 233 163 L 234 163 L 236 165 L 237 165 L 239 167 L 240 167 L 244 171 L 244 172 L 247 175 L 247 176 L 249 178 L 249 179 L 253 183 L 254 183 L 255 184 L 256 184 L 257 185 L 265 185 L 266 184 L 268 184 L 269 183 L 270 183 L 272 181 L 273 181 L 277 177 L 277 176 L 279 174 L 279 173 L 280 172 L 280 171 L 281 170 L 281 168 L 282 167 L 282 159 L 280 157 L 279 157 L 278 156 L 276 156 L 275 155 L 272 155 L 271 154 L 269 154 L 268 153 L 267 153 L 266 152 L 265 152 L 264 151 L 263 151 L 258 146 L 258 145 L 257 144 L 257 143 L 256 142 L 256 141 L 255 140 L 255 137 L 254 136 L 254 133 L 253 132 L 253 129 L 252 128 L 252 125 L 251 124 L 251 122 L 250 121 L 250 120 L 249 119 L 249 118 L 244 113 L 243 113 L 242 112 L 240 112 L 239 111 Z"/>
        <path id="path5" fill="#facc15" stroke="#000000" stroke-width="5" d="M 921 92 L 920 93 L 918 93 L 912 99 L 912 100 L 910 102 L 910 103 L 909 104 L 909 105 L 908 106 L 908 107 L 907 108 L 907 109 L 906 110 L 906 112 L 905 113 L 905 114 L 904 115 L 904 117 L 903 118 L 903 121 L 902 122 L 902 125 L 901 126 L 901 143 L 900 144 L 900 147 L 899 148 L 899 149 L 894 154 L 893 154 L 890 157 L 889 157 L 885 161 L 885 162 L 883 164 L 883 165 L 881 167 L 881 169 L 880 170 L 880 172 L 879 173 L 879 176 L 878 177 L 878 185 L 879 186 L 879 188 L 880 189 L 880 190 L 884 194 L 885 194 L 886 195 L 888 195 L 889 196 L 905 196 L 906 195 L 909 195 L 911 193 L 912 193 L 913 192 L 913 191 L 914 190 L 914 189 L 915 188 L 915 176 L 914 175 L 914 170 L 913 169 L 913 165 L 912 164 L 912 156 L 917 151 L 918 151 L 919 150 L 920 150 L 921 149 L 923 149 L 924 148 L 926 148 L 927 147 L 930 147 L 931 146 L 933 146 L 934 145 L 937 145 L 938 144 L 941 144 L 942 143 L 945 143 L 946 142 L 948 142 L 949 141 L 950 141 L 951 140 L 952 140 L 953 139 L 954 139 L 957 136 L 957 135 L 958 134 L 958 127 L 957 126 L 957 123 L 956 122 L 956 121 L 955 120 L 955 118 L 954 117 L 954 116 L 953 115 L 953 114 L 952 113 L 952 112 L 951 111 L 951 110 L 949 108 L 949 107 L 947 105 L 947 104 L 940 97 L 939 97 L 937 95 L 936 95 L 935 94 L 933 94 L 932 93 L 929 93 L 928 92 Z"/>
        <path id="path7" fill="#facc15" stroke="#000000" stroke-width="5" d="M 903 -25 L 902 -24 L 900 -24 L 899 -23 L 897 -23 L 896 -22 L 894 -22 L 893 -21 L 891 -21 L 890 -20 L 889 -20 L 888 -19 L 887 -19 L 886 -18 L 885 -18 L 884 -17 L 883 -17 L 880 -14 L 880 -13 L 879 -12 L 879 -11 L 878 -10 L 878 -5 L 877 -4 L 877 2 L 878 3 L 878 8 L 879 9 L 879 12 L 880 13 L 880 15 L 882 17 L 882 18 L 887 23 L 888 23 L 889 24 L 891 24 L 892 25 L 894 25 L 895 26 L 897 26 L 898 27 L 901 27 L 902 28 L 905 28 L 906 29 L 908 29 L 909 30 L 911 30 L 912 31 L 913 31 L 914 32 L 915 32 L 920 37 L 920 38 L 921 39 L 921 40 L 922 41 L 922 42 L 923 43 L 923 46 L 924 47 L 924 48 L 925 49 L 929 49 L 930 48 L 932 48 L 933 47 L 935 47 L 936 46 L 937 46 L 938 45 L 939 45 L 940 44 L 942 44 L 943 43 L 944 43 L 945 42 L 947 42 L 948 41 L 951 41 L 952 40 L 965 40 L 966 41 L 969 41 L 970 42 L 971 42 L 972 43 L 973 43 L 975 45 L 976 45 L 983 52 L 983 53 L 986 56 L 986 57 L 987 58 L 987 59 L 988 60 L 988 62 L 989 63 L 989 68 L 990 69 L 990 78 L 991 79 L 991 83 L 992 84 L 992 87 L 993 88 L 993 90 L 994 91 L 994 93 L 995 94 L 995 95 L 996 96 L 996 97 L 997 98 L 997 99 L 999 101 L 999 102 L 1004 107 L 1005 107 L 1006 108 L 1007 108 L 1008 109 L 1016 109 L 1017 108 L 1019 108 L 1026 101 L 1026 100 L 1027 99 L 1027 97 L 1028 96 L 1028 93 L 1029 92 L 1029 86 L 1028 85 L 1028 82 L 1027 81 L 1027 79 L 1026 78 L 1026 77 L 1024 75 L 1024 74 L 1020 70 L 1020 69 L 1015 64 L 1015 63 L 1014 62 L 1014 61 L 1013 60 L 1013 55 L 1014 54 L 1014 53 L 1015 52 L 1015 51 L 1016 50 L 1016 49 L 1017 48 L 1017 47 L 1019 45 L 1019 44 L 1020 43 L 1020 42 L 1021 41 L 1021 40 L 1022 39 L 1022 37 L 1023 36 L 1023 33 L 1024 32 L 1024 28 L 1023 27 L 1023 25 L 1022 24 L 1022 23 L 1018 19 L 1017 19 L 1016 18 L 1015 18 L 1014 17 L 1012 17 L 1011 16 L 1009 16 L 1008 15 L 1007 15 L 1006 14 L 1004 14 L 1003 13 L 1002 13 L 1001 12 L 1000 12 L 999 11 L 998 11 L 996 9 L 995 9 L 991 5 L 990 5 L 984 -1 L 983 -1 L 980 -4 L 979 -4 L 977 -6 L 976 -6 L 975 -7 L 974 -7 L 973 -8 L 972 -8 L 971 -9 L 970 -9 L 969 -10 L 968 -10 L 967 -11 L 966 -11 L 964 -13 L 963 -13 L 958 -18 L 958 -19 L 957 -20 L 957 -25 Z"/>
        <path id="path9" fill="#facc15" stroke="#000000" stroke-width="5" d="M 649 -25 L 642 -18 L 642 -17 L 641 -16 L 641 -10 L 642 -9 L 642 -7 L 643 -6 L 643 -5 L 644 -4 L 644 -3 L 646 -1 L 646 0 L 651 5 L 651 6 L 660 15 L 660 16 L 663 19 L 663 20 L 665 22 L 665 23 L 668 26 L 668 27 L 674 33 L 674 34 L 676 36 L 676 37 L 678 39 L 678 40 L 679 41 L 679 42 L 680 43 L 680 45 L 681 46 L 681 51 L 682 52 L 682 57 L 681 58 L 681 62 L 680 63 L 680 65 L 679 66 L 679 68 L 678 69 L 678 70 L 677 71 L 677 72 L 676 73 L 676 75 L 675 76 L 675 77 L 674 78 L 674 79 L 673 80 L 673 81 L 672 82 L 672 83 L 671 84 L 671 86 L 670 87 L 670 88 L 669 89 L 669 91 L 668 92 L 668 93 L 667 94 L 667 96 L 666 97 L 666 100 L 665 101 L 665 103 L 664 104 L 664 108 L 663 109 L 663 120 L 664 121 L 664 124 L 665 125 L 665 126 L 666 127 L 666 128 L 667 129 L 667 130 L 668 131 L 668 132 L 669 133 L 669 134 L 671 136 L 671 137 L 672 138 L 672 139 L 674 141 L 674 142 L 676 144 L 676 145 L 677 146 L 677 147 L 679 149 L 679 150 L 680 151 L 680 153 L 681 154 L 681 155 L 682 156 L 682 160 L 683 161 L 683 170 L 682 171 L 682 174 L 681 175 L 681 177 L 680 178 L 680 179 L 679 180 L 679 181 L 678 182 L 678 183 L 677 184 L 677 185 L 675 187 L 675 188 L 673 190 L 673 191 L 671 193 L 671 194 L 670 195 L 670 196 L 668 198 L 668 199 L 666 201 L 666 202 L 665 203 L 665 204 L 664 205 L 664 206 L 662 208 L 662 209 L 661 210 L 661 211 L 659 213 L 659 214 L 656 217 L 656 218 L 650 224 L 777 224 L 774 221 L 774 220 L 771 217 L 771 216 L 769 214 L 769 213 L 768 212 L 768 211 L 766 209 L 766 208 L 765 207 L 765 206 L 763 204 L 763 203 L 758 198 L 757 198 L 755 196 L 754 196 L 753 195 L 751 195 L 750 194 L 749 194 L 748 193 L 746 193 L 745 192 L 744 192 L 743 191 L 742 191 L 740 189 L 740 188 L 739 187 L 739 178 L 740 177 L 740 173 L 741 172 L 741 163 L 740 162 L 740 160 L 738 158 L 738 157 L 737 156 L 736 156 L 734 154 L 733 154 L 731 152 L 730 152 L 729 151 L 727 151 L 726 150 L 725 150 L 724 149 L 722 149 L 721 148 L 720 148 L 719 147 L 718 147 L 717 146 L 715 146 L 714 145 L 713 145 L 711 143 L 710 143 L 708 141 L 707 141 L 704 138 L 704 137 L 702 135 L 702 134 L 701 133 L 701 131 L 700 130 L 700 119 L 701 118 L 701 116 L 702 115 L 702 113 L 704 111 L 704 110 L 710 104 L 711 104 L 712 103 L 713 103 L 714 102 L 716 102 L 717 101 L 725 101 L 726 102 L 729 102 L 730 103 L 733 103 L 734 104 L 735 104 L 736 105 L 738 105 L 739 106 L 740 106 L 741 107 L 742 107 L 743 108 L 744 108 L 745 109 L 746 109 L 748 111 L 749 111 L 753 115 L 753 116 L 755 118 L 755 119 L 756 120 L 756 122 L 757 123 L 757 127 L 758 128 L 758 136 L 759 137 L 759 146 L 760 147 L 760 151 L 761 152 L 761 154 L 762 155 L 762 156 L 763 157 L 763 159 L 764 160 L 764 161 L 765 162 L 765 163 L 766 164 L 766 165 L 767 166 L 767 167 L 768 168 L 768 169 L 769 170 L 769 171 L 771 173 L 771 174 L 776 179 L 777 179 L 779 181 L 780 181 L 781 182 L 782 182 L 783 183 L 785 183 L 786 184 L 787 184 L 788 185 L 790 185 L 791 186 L 792 186 L 793 187 L 794 187 L 795 188 L 796 188 L 802 194 L 802 195 L 803 196 L 803 198 L 804 199 L 804 201 L 805 202 L 805 208 L 806 209 L 806 215 L 807 216 L 807 219 L 809 221 L 809 222 L 810 223 L 811 223 L 812 224 L 835 224 L 836 223 L 838 223 L 839 222 L 840 222 L 841 221 L 842 221 L 843 220 L 844 220 L 845 219 L 846 219 L 847 218 L 848 218 L 849 217 L 850 217 L 855 212 L 855 211 L 856 210 L 856 208 L 857 207 L 857 199 L 856 198 L 856 196 L 855 195 L 855 194 L 854 193 L 854 192 L 852 190 L 852 189 L 847 184 L 846 184 L 844 182 L 843 182 L 842 181 L 841 181 L 839 179 L 838 179 L 837 178 L 836 178 L 835 177 L 834 177 L 833 176 L 832 176 L 831 175 L 830 175 L 822 167 L 822 166 L 820 164 L 820 162 L 819 161 L 819 160 L 818 159 L 818 157 L 817 156 L 817 155 L 816 154 L 816 152 L 815 151 L 815 150 L 814 149 L 814 148 L 813 147 L 813 146 L 806 139 L 805 139 L 803 137 L 802 137 L 800 135 L 799 135 L 797 133 L 796 133 L 783 120 L 783 119 L 779 115 L 778 115 L 774 111 L 773 111 L 770 108 L 769 108 L 763 102 L 763 101 L 761 99 L 761 98 L 759 96 L 759 95 L 758 94 L 758 93 L 756 91 L 756 90 L 754 88 L 754 87 L 752 85 L 752 84 L 749 81 L 749 80 L 745 76 L 745 75 L 743 73 L 743 72 L 741 70 L 741 69 L 740 68 L 740 66 L 739 65 L 739 63 L 738 62 L 738 56 L 737 55 L 737 36 L 736 35 L 736 31 L 735 30 L 735 29 L 734 28 L 734 27 L 732 25 L 731 25 L 729 23 L 728 23 L 727 22 L 726 22 L 725 21 L 723 21 L 722 20 L 720 20 L 719 19 L 717 19 L 716 18 L 714 18 L 713 17 L 710 17 L 709 16 L 707 16 L 706 15 L 704 15 L 703 14 L 701 14 L 700 13 L 698 13 L 697 12 L 695 12 L 694 11 L 693 11 L 692 10 L 691 10 L 690 9 L 689 9 L 682 2 L 682 0 L 681 -1 L 681 -6 L 682 -7 L 682 -9 L 683 -10 L 683 -12 L 685 -14 L 685 -15 L 689 -19 L 690 -19 L 693 -22 L 694 -22 L 695 -23 L 697 -23 L 698 -24 L 706 -24 L 708 -22 L 709 -22 L 715 -16 L 715 -15 L 720 -10 L 721 -10 L 725 -6 L 726 -6 L 729 -3 L 730 -3 L 735 2 L 736 2 L 742 8 L 742 9 L 746 13 L 747 13 L 750 16 L 751 16 L 752 17 L 753 17 L 754 18 L 756 18 L 757 19 L 758 19 L 759 20 L 761 20 L 762 21 L 763 21 L 764 22 L 765 22 L 766 23 L 767 23 L 770 26 L 771 26 L 773 28 L 773 29 L 775 31 L 775 32 L 776 33 L 776 34 L 777 35 L 777 36 L 778 37 L 778 38 L 779 39 L 779 40 L 780 41 L 780 42 L 781 43 L 781 44 L 782 45 L 782 46 L 783 47 L 783 48 L 785 50 L 785 51 L 786 52 L 786 53 L 788 55 L 788 56 L 790 58 L 790 59 L 791 60 L 791 61 L 792 62 L 792 63 L 794 65 L 794 67 L 795 68 L 795 69 L 796 70 L 796 73 L 797 74 L 797 79 L 798 80 L 798 89 L 799 90 L 799 95 L 800 96 L 800 98 L 801 99 L 801 100 L 805 104 L 806 104 L 807 105 L 808 105 L 809 106 L 811 106 L 812 107 L 822 107 L 823 106 L 824 106 L 825 105 L 826 105 L 830 101 L 830 100 L 832 98 L 832 97 L 833 96 L 833 95 L 834 94 L 834 93 L 835 92 L 835 91 L 836 90 L 836 89 L 837 88 L 837 87 L 839 85 L 839 84 L 840 83 L 840 82 L 842 80 L 842 79 L 844 77 L 844 76 L 846 74 L 846 73 L 854 65 L 855 65 L 858 62 L 859 62 L 861 60 L 862 60 L 866 56 L 866 55 L 867 54 L 867 46 L 866 45 L 866 44 L 862 40 L 861 40 L 860 39 L 859 39 L 858 38 L 856 38 L 855 37 L 853 37 L 852 36 L 848 36 L 847 35 L 845 35 L 844 34 L 843 34 L 839 30 L 839 29 L 838 28 L 838 20 L 839 19 L 839 13 L 840 12 L 840 -1 L 839 -2 L 839 -4 L 838 -5 L 838 -6 L 835 -9 L 834 -9 L 833 -10 L 827 -10 L 826 -9 L 825 -9 L 818 -2 L 818 -1 L 809 8 L 808 8 L 807 9 L 805 9 L 804 10 L 795 10 L 794 9 L 793 9 L 788 4 L 788 2 L 787 1 L 787 -8 L 786 -9 L 786 -14 L 785 -15 L 785 -17 L 783 -19 L 783 -20 L 778 -25 Z"/>
        <path id="path10" fill="#facc15" stroke="#000000" stroke-width="5" d="M 272 -25 L 272 -23 L 271 -22 L 271 -21 L 270 -20 L 270 -19 L 269 -18 L 269 -17 L 268 -16 L 268 -14 L 267 -13 L 267 -12 L 266 -11 L 266 -10 L 263 -7 L 263 -6 L 262 -5 L 261 -5 L 259 -3 L 257 -3 L 256 -2 L 251 -2 L 250 -1 L 233 -1 L 232 0 L 229 0 L 228 1 L 227 1 L 226 2 L 225 2 L 224 3 L 223 3 L 216 10 L 216 11 L 214 13 L 214 14 L 212 16 L 212 17 L 210 19 L 210 20 L 209 21 L 209 22 L 208 23 L 208 24 L 206 26 L 206 27 L 205 28 L 205 29 L 203 31 L 203 32 L 201 34 L 201 35 L 199 37 L 199 38 L 196 41 L 196 42 L 192 46 L 192 47 L 186 53 L 185 53 L 184 54 L 183 54 L 182 55 L 175 55 L 173 53 L 172 53 L 169 50 L 169 49 L 168 48 L 168 47 L 167 46 L 167 43 L 166 42 L 166 32 L 167 31 L 167 17 L 166 16 L 166 14 L 165 13 L 165 12 L 164 11 L 164 10 L 162 8 L 162 7 L 153 -2 L 152 -2 L 151 -3 L 146 -3 L 145 -2 L 144 -2 L 139 3 L 139 4 L 137 6 L 137 7 L 136 8 L 136 9 L 135 10 L 135 11 L 134 12 L 134 13 L 133 14 L 133 16 L 132 17 L 132 19 L 131 20 L 131 22 L 130 23 L 130 25 L 129 26 L 129 29 L 128 30 L 128 33 L 127 34 L 127 36 L 126 37 L 126 39 L 125 40 L 125 42 L 124 43 L 124 45 L 123 46 L 123 49 L 124 50 L 124 52 L 125 53 L 125 54 L 128 57 L 128 58 L 138 68 L 139 68 L 149 78 L 149 79 L 150 80 L 150 81 L 151 82 L 151 83 L 152 84 L 152 86 L 153 87 L 153 91 L 154 92 L 154 94 L 153 95 L 153 101 L 152 102 L 152 104 L 151 105 L 151 106 L 150 107 L 150 108 L 149 109 L 149 110 L 139 120 L 138 120 L 136 122 L 135 122 L 134 123 L 133 123 L 132 124 L 131 124 L 130 125 L 129 125 L 128 126 L 127 126 L 126 127 L 125 127 L 124 128 L 122 128 L 121 129 L 119 129 L 118 130 L 117 130 L 116 131 L 114 131 L 113 132 L 111 132 L 110 133 L 108 133 L 107 134 L 106 134 L 105 135 L 103 135 L 102 136 L 101 136 L 100 137 L 98 137 L 97 138 L 96 138 L 95 139 L 93 139 L 92 140 L 91 140 L 90 141 L 88 141 L 87 142 L 86 142 L 85 143 L 84 143 L 82 145 L 81 145 L 79 147 L 78 147 L 74 151 L 74 152 L 73 153 L 73 154 L 72 155 L 72 156 L 71 157 L 71 160 L 70 161 L 70 165 L 71 166 L 71 168 L 72 169 L 72 170 L 73 171 L 73 172 L 75 174 L 75 175 L 84 184 L 84 185 L 86 187 L 86 188 L 87 189 L 87 192 L 88 193 L 88 198 L 87 199 L 87 202 L 86 203 L 86 204 L 85 205 L 85 206 L 84 207 L 84 208 L 81 211 L 81 212 L 71 222 L 71 223 L 70 224 L 115 224 L 118 221 L 118 220 L 122 216 L 122 215 L 123 214 L 123 213 L 124 212 L 124 211 L 125 210 L 125 209 L 126 208 L 126 205 L 127 204 L 127 196 L 126 195 L 126 191 L 125 190 L 125 188 L 124 187 L 124 185 L 123 184 L 123 182 L 122 181 L 122 179 L 121 178 L 121 177 L 120 176 L 120 174 L 119 173 L 119 171 L 118 170 L 118 167 L 117 166 L 117 152 L 118 151 L 118 150 L 120 148 L 127 148 L 128 149 L 132 149 L 133 150 L 139 150 L 140 151 L 141 150 L 146 150 L 147 149 L 148 149 L 149 148 L 150 148 L 151 147 L 152 147 L 159 140 L 159 139 L 169 129 L 169 128 L 178 119 L 178 118 L 180 116 L 180 115 L 181 114 L 181 98 L 180 97 L 180 85 L 181 84 L 181 80 L 182 79 L 182 78 L 183 77 L 183 76 L 184 75 L 184 74 L 185 73 L 185 72 L 188 69 L 189 69 L 190 68 L 191 68 L 192 67 L 193 67 L 194 66 L 196 66 L 197 65 L 201 65 L 202 64 L 205 64 L 206 63 L 208 63 L 209 62 L 212 62 L 213 61 L 214 61 L 215 60 L 217 60 L 218 59 L 219 59 L 220 58 L 221 58 L 222 57 L 223 57 L 224 56 L 225 56 L 226 55 L 227 55 L 228 54 L 230 54 L 231 53 L 233 53 L 234 52 L 242 52 L 243 53 L 244 53 L 245 54 L 246 54 L 248 56 L 249 56 L 252 59 L 252 60 L 255 63 L 255 64 L 257 66 L 257 67 L 259 69 L 259 70 L 261 72 L 261 73 L 262 74 L 262 75 L 264 77 L 264 78 L 266 80 L 266 81 L 268 83 L 268 84 L 271 87 L 271 88 L 275 92 L 275 93 L 281 99 L 281 100 L 283 102 L 283 103 L 284 104 L 284 105 L 285 106 L 285 107 L 286 108 L 286 110 L 287 111 L 287 114 L 288 115 L 288 120 L 289 121 L 289 133 L 290 134 L 290 146 L 291 147 L 291 149 L 293 151 L 294 151 L 295 152 L 297 152 L 298 153 L 301 153 L 302 154 L 304 154 L 306 156 L 306 161 L 305 162 L 305 164 L 304 165 L 304 167 L 303 168 L 303 169 L 302 170 L 302 172 L 301 173 L 301 175 L 300 176 L 300 178 L 299 179 L 299 181 L 298 182 L 298 184 L 297 185 L 297 186 L 296 187 L 296 189 L 295 190 L 295 191 L 293 193 L 293 194 L 291 196 L 291 197 L 289 199 L 289 200 L 285 204 L 285 205 L 282 208 L 282 209 L 280 211 L 280 212 L 278 214 L 278 215 L 277 216 L 277 217 L 276 218 L 276 219 L 274 221 L 274 222 L 273 223 L 273 224 L 330 224 L 329 223 L 329 222 L 327 220 L 327 218 L 326 217 L 326 211 L 327 210 L 327 209 L 328 208 L 328 207 L 329 206 L 329 205 L 333 201 L 333 200 L 339 194 L 339 193 L 342 190 L 342 189 L 344 187 L 344 186 L 346 184 L 346 183 L 347 182 L 347 181 L 348 180 L 348 179 L 349 178 L 349 177 L 350 176 L 350 175 L 351 174 L 351 173 L 352 172 L 352 171 L 353 170 L 353 169 L 354 168 L 354 167 L 355 166 L 355 165 L 356 164 L 356 163 L 360 159 L 369 159 L 370 160 L 372 160 L 373 161 L 374 161 L 375 162 L 376 162 L 381 167 L 381 168 L 382 169 L 382 170 L 383 171 L 383 173 L 384 174 L 384 181 L 385 182 L 385 193 L 386 194 L 386 199 L 387 200 L 387 203 L 388 204 L 388 205 L 389 206 L 389 207 L 390 208 L 390 209 L 392 211 L 392 212 L 399 219 L 399 220 L 402 223 L 402 224 L 429 224 L 429 221 L 430 220 L 430 218 L 431 217 L 431 216 L 432 215 L 432 214 L 433 213 L 433 212 L 434 211 L 434 210 L 435 209 L 435 208 L 436 207 L 436 206 L 438 204 L 438 203 L 439 202 L 439 201 L 440 200 L 440 199 L 441 198 L 441 197 L 442 196 L 442 195 L 443 194 L 443 193 L 444 192 L 444 186 L 443 185 L 443 184 L 422 163 L 422 162 L 418 158 L 418 157 L 416 155 L 416 154 L 415 153 L 415 152 L 414 151 L 414 150 L 413 149 L 413 148 L 412 147 L 412 143 L 411 142 L 411 119 L 410 118 L 410 113 L 409 112 L 409 104 L 408 103 L 408 102 L 409 101 L 409 96 L 410 95 L 410 93 L 411 92 L 411 91 L 412 90 L 412 89 L 413 88 L 413 87 L 416 84 L 416 83 L 423 76 L 424 76 L 426 74 L 427 74 L 428 73 L 429 73 L 430 72 L 432 72 L 433 71 L 435 71 L 436 70 L 439 70 L 440 69 L 444 69 L 445 68 L 465 68 L 466 69 L 468 69 L 469 70 L 470 70 L 471 71 L 472 71 L 474 73 L 474 74 L 475 75 L 475 76 L 476 77 L 476 81 L 475 82 L 475 85 L 474 86 L 474 87 L 473 88 L 473 90 L 472 91 L 472 92 L 471 93 L 471 94 L 470 95 L 470 96 L 468 98 L 468 99 L 467 100 L 467 101 L 465 103 L 465 104 L 462 107 L 462 108 L 458 112 L 458 113 L 454 117 L 454 118 L 453 119 L 453 120 L 452 121 L 452 123 L 451 124 L 451 127 L 452 128 L 452 130 L 453 131 L 453 132 L 454 133 L 454 134 L 457 137 L 457 138 L 459 140 L 459 141 L 461 143 L 461 144 L 462 145 L 462 146 L 463 147 L 463 148 L 464 149 L 464 151 L 465 152 L 465 162 L 464 163 L 464 165 L 463 166 L 463 168 L 462 169 L 462 170 L 461 171 L 461 172 L 460 173 L 460 174 L 459 175 L 459 177 L 458 178 L 458 179 L 457 180 L 457 187 L 461 191 L 461 192 L 466 197 L 466 198 L 467 199 L 467 200 L 468 201 L 468 202 L 469 203 L 469 205 L 470 206 L 470 212 L 471 213 L 471 224 L 515 224 L 514 223 L 514 221 L 513 220 L 513 219 L 512 218 L 512 216 L 511 215 L 511 214 L 510 213 L 510 211 L 509 210 L 509 209 L 508 208 L 508 207 L 506 205 L 506 204 L 496 194 L 495 194 L 490 189 L 490 188 L 488 186 L 488 185 L 487 184 L 487 183 L 486 182 L 486 181 L 485 180 L 485 178 L 484 177 L 484 162 L 485 161 L 485 160 L 486 159 L 486 157 L 488 155 L 488 154 L 494 148 L 495 148 L 497 146 L 498 146 L 499 145 L 500 145 L 501 144 L 502 144 L 503 143 L 507 143 L 508 142 L 512 142 L 513 143 L 516 143 L 517 144 L 519 144 L 520 145 L 521 145 L 523 147 L 524 147 L 525 148 L 526 148 L 530 152 L 531 152 L 536 157 L 536 158 L 539 161 L 539 162 L 540 163 L 540 164 L 541 165 L 541 166 L 542 167 L 542 170 L 543 171 L 543 177 L 544 178 L 544 186 L 545 187 L 545 190 L 546 191 L 546 192 L 547 193 L 547 194 L 548 195 L 548 196 L 551 199 L 551 200 L 555 204 L 555 205 L 557 207 L 557 208 L 559 210 L 559 211 L 560 212 L 560 214 L 561 215 L 561 217 L 562 218 L 562 224 L 631 224 L 631 223 L 630 222 L 630 214 L 629 213 L 629 198 L 628 197 L 628 189 L 627 188 L 627 185 L 626 184 L 626 182 L 625 181 L 625 180 L 623 178 L 623 177 L 621 175 L 620 175 L 618 173 L 617 173 L 616 172 L 615 172 L 614 171 L 612 171 L 611 170 L 605 170 L 604 169 L 596 169 L 595 168 L 591 168 L 590 167 L 587 167 L 586 166 L 585 166 L 584 165 L 582 165 L 580 163 L 579 163 L 578 162 L 577 162 L 571 156 L 571 155 L 570 154 L 570 153 L 569 152 L 569 151 L 568 150 L 568 139 L 569 138 L 569 137 L 570 136 L 570 135 L 571 134 L 571 133 L 576 128 L 577 128 L 579 126 L 581 126 L 582 125 L 585 125 L 586 124 L 597 124 L 598 125 L 601 125 L 602 126 L 605 126 L 606 127 L 607 127 L 608 128 L 610 128 L 611 129 L 612 129 L 613 130 L 614 130 L 615 131 L 617 131 L 618 132 L 625 132 L 626 131 L 627 131 L 629 129 L 629 128 L 630 127 L 630 125 L 631 124 L 631 118 L 630 117 L 630 114 L 629 113 L 629 110 L 628 109 L 628 106 L 627 105 L 627 101 L 626 100 L 626 91 L 627 90 L 627 87 L 628 86 L 628 84 L 629 83 L 629 82 L 630 81 L 630 80 L 631 79 L 631 78 L 632 77 L 632 76 L 634 74 L 634 73 L 636 71 L 636 70 L 638 68 L 638 67 L 639 66 L 639 65 L 641 63 L 641 62 L 642 61 L 642 60 L 643 59 L 643 57 L 644 56 L 644 53 L 645 52 L 645 48 L 644 47 L 644 45 L 640 41 L 639 41 L 638 40 L 637 40 L 636 39 L 634 39 L 633 38 L 631 38 L 630 37 L 627 37 L 626 36 L 623 36 L 622 35 L 619 35 L 618 34 L 615 34 L 614 33 L 612 33 L 611 32 L 609 32 L 608 31 L 607 31 L 606 30 L 605 30 L 604 29 L 603 29 L 602 28 L 601 28 L 599 26 L 598 26 L 594 22 L 594 21 L 593 20 L 593 19 L 592 18 L 592 14 L 593 13 L 593 12 L 594 11 L 594 10 L 599 5 L 600 5 L 603 2 L 604 2 L 606 0 L 607 0 L 609 -2 L 610 -2 L 612 -4 L 613 -4 L 615 -6 L 616 -6 L 618 -8 L 619 -8 L 621 -10 L 622 -10 L 624 -12 L 625 -12 L 629 -16 L 629 -17 L 630 -18 L 630 -19 L 631 -20 L 631 -25 L 563 -25 L 563 -17 L 562 -16 L 562 -12 L 561 -11 L 561 -10 L 560 -9 L 560 -8 L 558 -6 L 557 -6 L 556 -5 L 550 -5 L 549 -6 L 547 -6 L 546 -7 L 544 -7 L 543 -8 L 542 -8 L 541 -9 L 540 -9 L 539 -10 L 538 -10 L 537 -11 L 536 -11 L 535 -12 L 533 -12 L 532 -13 L 531 -13 L 530 -14 L 529 -14 L 527 -16 L 526 -16 L 525 -17 L 524 -17 L 522 -19 L 521 -19 L 516 -24 L 516 -25 L 471 -25 L 471 -19 L 472 -18 L 472 -17 L 474 -15 L 475 -15 L 476 -14 L 478 -14 L 479 -13 L 481 -13 L 482 -12 L 484 -12 L 485 -11 L 487 -11 L 488 -10 L 489 -10 L 490 -9 L 491 -9 L 497 -3 L 497 -2 L 498 -1 L 498 0 L 499 1 L 499 3 L 500 4 L 500 8 L 501 9 L 501 23 L 500 24 L 500 26 L 499 27 L 499 28 L 495 32 L 494 32 L 493 33 L 490 33 L 489 34 L 487 34 L 486 33 L 482 33 L 481 32 L 480 32 L 479 31 L 477 31 L 475 29 L 474 29 L 467 22 L 467 21 L 466 20 L 466 19 L 465 18 L 465 15 L 464 14 L 464 1 L 465 0 L 465 -6 L 464 -7 L 464 -9 L 462 -11 L 461 -11 L 460 -12 L 459 -12 L 458 -13 L 454 -13 L 453 -14 L 449 -14 L 448 -15 L 445 -15 L 444 -16 L 441 -16 L 440 -17 L 439 -17 L 438 -18 L 436 -18 L 434 -20 L 433 -20 L 430 -23 L 430 -25 L 402 -25 L 403 -24 L 403 -22 L 402 -21 L 402 -20 L 398 -16 L 397 -16 L 395 -14 L 394 -14 L 391 -11 L 390 -11 L 385 -6 L 385 -5 L 383 -3 L 383 -2 L 382 -1 L 382 1 L 381 2 L 381 5 L 380 6 L 380 10 L 379 11 L 379 17 L 378 18 L 378 23 L 377 24 L 377 26 L 373 30 L 372 30 L 371 31 L 367 31 L 366 32 L 346 32 L 345 31 L 340 31 L 339 30 L 337 30 L 336 29 L 335 29 L 331 25 L 331 24 L 330 23 L 330 21 L 329 20 L 329 13 L 330 12 L 330 8 L 331 7 L 331 4 L 332 3 L 332 1 L 333 0 L 333 -3 L 334 -4 L 334 -6 L 335 -7 L 335 -9 L 336 -10 L 336 -17 L 335 -18 L 335 -20 L 332 -23 L 332 -24 L 331 -25 Z"/>
        <path id="path11" fill="#facc15" stroke="#000000" stroke-width="5" d="M -23 -25 L -21 -23 L -21 -22 L -20 -21 L -20 -12 L -21 -11 L -21 -9 L -22 -8 L -22 -7 L -23 -6 L -23 -5 L -24 -4 L -24 -3 L -26 -1 L -26 0 L -28 2 L -28 3 L -30 5 L -30 6 L -31 7 L -31 8 L -33 10 L -33 11 L -34 12 L -34 14 L -35 15 L -35 16 L -36 17 L -36 21 L -37 22 L -37 35 L -36 36 L -36 40 L -35 41 L -35 43 L -34 44 L -34 46 L -33 47 L -33 49 L -32 50 L -32 51 L -31 52 L -31 53 L -30 54 L -30 55 L -29 56 L -29 57 L -27 59 L -27 60 L -26 61 L -26 62 L -25 63 L -25 64 L -24 65 L -24 66 L -23 67 L -23 69 L -22 70 L -22 79 L -23 80 L -23 82 L -24 83 L -24 84 L -25 85 L -25 86 L -26 87 L -26 89 L -27 90 L -27 91 L -28 92 L -28 94 L -29 95 L -29 96 L -30 97 L -30 99 L -31 100 L -31 101 L -32 102 L -32 104 L -33 105 L -33 107 L -34 108 L -34 110 L -35 111 L -35 113 L -36 114 L -36 116 L -37 117 L -37 118 L -38 119 L -38 121 L -39 122 L -39 124 L -40 125 L -40 127 L -41 128 L -41 129 L -42 130 L -42 131 L -43 132 L -43 133 L -44 134 L -44 135 L -45 136 L -45 137 L -47 139 L -47 140 L -50 143 L -50 222 L -49 222 L -48 221 L -30 221 L -29 222 L -27 222 L -26 223 L -25 223 L -24 224 L 36 224 L 43 217 L 43 216 L 45 214 L 45 213 L 46 212 L 46 211 L 47 210 L 47 208 L 48 207 L 48 204 L 49 203 L 49 192 L 48 191 L 48 188 L 47 187 L 47 186 L 46 185 L 46 184 L 44 182 L 44 181 L 33 170 L 33 169 L 32 168 L 32 167 L 31 166 L 31 164 L 30 163 L 30 160 L 31 159 L 31 157 L 32 156 L 32 154 L 34 152 L 34 151 L 38 147 L 38 146 L 55 129 L 55 128 L 59 124 L 60 124 L 63 121 L 64 121 L 65 120 L 66 120 L 67 119 L 69 119 L 70 118 L 83 118 L 84 119 L 88 119 L 89 120 L 93 120 L 94 121 L 102 121 L 103 120 L 103 119 L 104 118 L 104 116 L 105 115 L 105 102 L 104 101 L 104 95 L 103 94 L 103 89 L 102 88 L 102 79 L 103 78 L 103 76 L 104 75 L 104 74 L 105 73 L 105 72 L 106 71 L 106 70 L 107 69 L 107 68 L 109 66 L 109 65 L 111 63 L 111 62 L 113 60 L 113 59 L 114 58 L 114 57 L 116 55 L 116 54 L 117 53 L 117 51 L 118 50 L 118 48 L 117 47 L 117 46 L 116 45 L 116 44 L 115 43 L 115 42 L 111 38 L 111 37 L 105 31 L 104 31 L 92 19 L 92 18 L 90 16 L 90 14 L 89 13 L 89 6 L 90 5 L 90 3 L 91 2 L 91 1 L 93 -1 L 93 -2 L 98 -7 L 98 -8 L 110 -20 L 110 -21 L 114 -25 L 69 -25 L 68 -24 L 68 -23 L 66 -21 L 66 -20 L 65 -19 L 65 -18 L 64 -17 L 64 -15 L 63 -14 L 63 -12 L 62 -11 L 62 -10 L 61 -9 L 61 -7 L 60 -6 L 60 -4 L 59 -3 L 59 -1 L 58 0 L 58 1 L 57 2 L 57 4 L 56 5 L 56 6 L 55 7 L 55 9 L 54 10 L 54 11 L 53 12 L 53 14 L 52 15 L 52 19 L 51 20 L 51 28 L 52 29 L 52 34 L 53 35 L 53 39 L 54 40 L 54 45 L 55 46 L 55 51 L 56 52 L 56 58 L 57 59 L 57 71 L 56 72 L 56 74 L 55 75 L 55 76 L 54 77 L 54 78 L 48 84 L 47 84 L 45 86 L 44 86 L 43 87 L 42 87 L 40 89 L 39 89 L 38 90 L 37 90 L 36 91 L 35 91 L 34 92 L 33 92 L 32 93 L 31 93 L 30 94 L 28 94 L 27 95 L 25 95 L 24 96 L 18 96 L 17 95 L 16 95 L 15 94 L 14 94 L 7 87 L 7 86 L 6 85 L 6 84 L 5 83 L 5 82 L 4 81 L 4 79 L 3 78 L 3 72 L 4 71 L 4 69 L 5 68 L 5 67 L 6 66 L 6 64 L 7 63 L 7 62 L 8 61 L 8 60 L 9 59 L 9 58 L 10 57 L 10 56 L 11 55 L 11 54 L 12 53 L 12 51 L 13 50 L 13 49 L 14 48 L 14 46 L 15 45 L 15 43 L 16 42 L 16 40 L 17 39 L 17 36 L 18 35 L 18 32 L 19 31 L 19 27 L 20 26 L 20 -1 L 21 -2 L 21 -5 L 22 -6 L 22 -8 L 23 -9 L 23 -10 L 24 -11 L 24 -12 L 25 -13 L 25 -14 L 28 -17 L 28 -18 L 35 -25 Z"/>
    </g>
</svg>
