<?xml version="1.0" encoding="UTF-8"?>
<!-- Generated by Pixelmator Pro 3.6.7 -->
<svg width="1100" height="250" viewBox="0 0 1100 250" xmlns="http://www.w3.org/2000/svg">
    <clipPath id="clipPath1">
        <path d="M 50 25 L 250 25 L 250 225 L 50 225 Z"/>
    </clipPath>
    <g id="Group" clip-path="url(#clipPath1)">
        <path id="Path" fill="none" stroke="none" d="M 0 0 L 1100 0 L 1100 250 L 0 250 Z"/>
        <path id="Rectangle" fill="#4338ca" fill-rule="evenodd" stroke="none" d="M 50 225 L 250 225 L 250 25 L 50 25 Z"/>
        <path id="path1" fill="#facc15" stroke="#000000" stroke-width="5" d="M 224 202 L 223 203 L 221 203 L 220 204 L 219 204 L 218 205 L 217 205 L 215 207 L 214 207 L 213 208 L 213 209 L 210 212 L 210 213 L 209 214 L 209 215 L 208 216 L 208 217 L 207 218 L 207 220 L 206 221 L 206 223 L 205 224 L 205 235 L 206 236 L 206 237 L 208 239 L 209 239 L 210 240 L 216 240 L 217 239 L 220 239 L 221 238 L 223 238 L 224 237 L 226 237 L 227 236 L 228 236 L 229 235 L 231 235 L 232 234 L 233 234 L 234 233 L 235 233 L 237 231 L 238 231 L 239 230 L 240 230 L 246 224 L 246 223 L 247 222 L 247 221 L 248 220 L 248 218 L 249 217 L 249 213 L 248 212 L 248 210 L 247 209 L 247 208 L 244 205 L 243 205 L 242 204 L 241 204 L 240 203 L 238 203 L 237 202 Z"/>
        <path id="path2" fill="#eeeeee" stroke="#000000" stroke-width="5" d="M 1099 170 L 1096 173 L 1096 174 L 1094 176 L 1094 177 L 1092 179 L 1092 180 L 1091 181 L 1091 183 L 1090 184 L 1090 186 L 1089 187 L 1089 193 L 1088 194 L 1088 214 L 1087 215 L 1087 223 L 1086 224 L 1086 229 L 1085 230 L 1085 232 L 1084 233 L 1084 236 L 1083 237 L 1083 244 L 1086 247 L 1088 247 L 1089 248 L 1093 248 L 1094 247 L 1099 247 Z"/>
        <path id="path3" fill="#eeeeee" stroke="#000000" stroke-width="5" d="M 1032 169 L 1031 170 L 1028 170 L 1027 171 L 1026 171 L 1025 172 L 1024 172 L 1022 174 L 1022 175 L 1021 176 L 1021 177 L 1020 178 L 1020 180 L 1019 181 L 1019 183 L 1018 184 L 1018 186 L 1017 187 L 1017 189 L 1016 190 L 1016 192 L 1015 193 L 1015 195 L 1014 196 L 1014 197 L 1013 198 L 1013 199 L 1012 200 L 1012 201 L 1011 202 L 1011 203 L 1010 204 L 1010 205 L 1009 206 L 1009 207 L 1007 209 L 1007 210 L 1005 212 L 1005 213 L 999 219 L 998 219 L 996 221 L 995 221 L 994 222 L 993 222 L 992 223 L 991 223 L 990 224 L 989 224 L 988 225 L 986 225 L 985 226 L 984 226 L 983 227 L 981 227 L 979 229 L 978 229 L 974 233 L 974 234 L 971 237 L 971 238 L 964 245 L 963 245 L 961 247 L 960 247 L 959 248 L 958 248 L 957 249 L 956 249 L 1007 249 L 1007 247 L 1008 246 L 1008 245 L 1009 244 L 1009 243 L 1010 242 L 1010 241 L 1014 237 L 1015 237 L 1017 235 L 1018 235 L 1019 234 L 1021 234 L 1022 233 L 1024 233 L 1025 232 L 1027 232 L 1028 231 L 1031 231 L 1032 230 L 1034 230 L 1035 229 L 1036 229 L 1037 228 L 1038 228 L 1039 227 L 1040 227 L 1043 224 L 1043 223 L 1044 222 L 1044 221 L 1045 220 L 1045 217 L 1046 216 L 1046 212 L 1047 211 L 1047 207 L 1048 206 L 1048 203 L 1049 202 L 1049 199 L 1050 198 L 1050 195 L 1051 194 L 1051 191 L 1052 190 L 1052 185 L 1053 184 L 1053 180 L 1052 179 L 1052 177 L 1051 176 L 1051 175 L 1047 171 L 1046 171 L 1045 170 L 1043 170 L 1042 169 Z"/>
        <path id="path4" fill="#eeeeee" stroke="#000000" stroke-width="5" d="M 281 136 L 280 137 L 277 137 L 276 138 L 275 138 L 274 139 L 273 139 L 272 140 L 271 140 L 270 141 L 269 141 L 266 144 L 265 144 L 265 145 L 263 147 L 263 148 L 262 149 L 262 151 L 261 152 L 261 159 L 262 160 L 262 164 L 263 165 L 263 167 L 264 168 L 264 170 L 265 171 L 265 172 L 266 173 L 266 174 L 267 175 L 267 176 L 269 178 L 269 179 L 272 182 L 273 182 L 275 184 L 276 184 L 277 185 L 278 185 L 279 186 L 280 186 L 281 187 L 282 187 L 283 188 L 284 188 L 286 190 L 287 190 L 289 192 L 290 192 L 294 196 L 294 197 L 297 200 L 297 201 L 299 203 L 299 204 L 303 208 L 304 208 L 305 209 L 306 209 L 307 210 L 315 210 L 316 209 L 318 209 L 319 208 L 320 208 L 322 206 L 323 206 L 327 202 L 327 201 L 329 199 L 329 198 L 330 197 L 330 196 L 331 195 L 331 193 L 332 192 L 332 184 L 330 182 L 329 182 L 328 181 L 326 181 L 325 180 L 322 180 L 321 179 L 319 179 L 318 178 L 317 178 L 316 177 L 315 177 L 314 176 L 313 176 L 308 171 L 308 170 L 307 169 L 307 168 L 306 167 L 306 166 L 305 165 L 305 162 L 304 161 L 304 158 L 303 157 L 303 154 L 302 153 L 302 150 L 301 149 L 301 147 L 300 146 L 300 145 L 299 144 L 299 143 L 294 138 L 293 138 L 292 137 L 290 137 L 289 136 Z"/>
        <path id="path5" fill="#eeeeee" stroke="#000000" stroke-width="5" d="M 971 117 L 970 118 L 968 118 L 962 124 L 962 125 L 960 127 L 960 128 L 959 129 L 959 130 L 958 131 L 958 132 L 957 133 L 957 134 L 956 135 L 956 137 L 955 138 L 955 139 L 954 140 L 954 142 L 953 143 L 953 146 L 952 147 L 952 150 L 951 151 L 951 168 L 950 169 L 950 172 L 949 173 L 949 174 L 944 179 L 943 179 L 940 182 L 939 182 L 935 186 L 935 187 L 933 189 L 933 190 L 931 192 L 931 194 L 930 195 L 930 197 L 929 198 L 929 201 L 928 202 L 928 210 L 929 211 L 929 213 L 930 214 L 930 215 L 934 219 L 935 219 L 936 220 L 938 220 L 939 221 L 955 221 L 956 220 L 959 220 L 961 218 L 962 218 L 963 217 L 963 216 L 964 215 L 964 214 L 965 213 L 965 201 L 964 200 L 964 195 L 963 194 L 963 190 L 962 189 L 962 181 L 967 176 L 968 176 L 969 175 L 970 175 L 971 174 L 973 174 L 974 173 L 976 173 L 977 172 L 980 172 L 981 171 L 983 171 L 984 170 L 987 170 L 988 169 L 991 169 L 992 168 L 995 168 L 996 167 L 998 167 L 999 166 L 1000 166 L 1001 165 L 1002 165 L 1003 164 L 1004 164 L 1007 161 L 1007 160 L 1008 159 L 1008 152 L 1007 151 L 1007 148 L 1006 147 L 1006 146 L 1005 145 L 1005 143 L 1004 142 L 1004 141 L 1003 140 L 1003 139 L 1002 138 L 1002 137 L 1001 136 L 1001 135 L 999 133 L 999 132 L 997 130 L 997 129 L 990 122 L 989 122 L 987 120 L 986 120 L 985 119 L 983 119 L 982 118 L 979 118 L 978 117 Z"/>
        <path id="path6" fill="#eeeeee" stroke="#000000" stroke-width="5" d="M 961 86 L 960 87 L 957 87 L 956 88 L 955 88 L 954 89 L 953 89 L 952 90 L 951 90 L 947 94 L 947 96 L 948 97 L 948 98 L 949 99 L 950 99 L 951 100 L 953 100 L 954 101 L 955 101 L 956 100 L 959 100 L 963 96 L 963 95 L 964 94 L 964 93 L 965 92 L 965 86 Z"/>
        <path id="path7" fill="#eeeeee" stroke="#000000" stroke-width="5" d="M 953 0 L 952 1 L 950 1 L 949 2 L 947 2 L 946 3 L 944 3 L 943 4 L 941 4 L 940 5 L 939 5 L 938 6 L 937 6 L 936 7 L 935 7 L 934 8 L 933 8 L 930 11 L 930 12 L 929 13 L 929 14 L 928 15 L 928 20 L 927 21 L 927 27 L 928 28 L 928 33 L 929 34 L 929 37 L 930 38 L 930 40 L 932 42 L 932 43 L 937 48 L 938 48 L 939 49 L 941 49 L 942 50 L 944 50 L 945 51 L 947 51 L 948 52 L 951 52 L 952 53 L 955 53 L 956 54 L 958 54 L 959 55 L 961 55 L 962 56 L 963 56 L 964 57 L 965 57 L 970 62 L 970 63 L 971 64 L 971 65 L 972 66 L 972 67 L 973 68 L 973 71 L 974 72 L 974 73 L 975 74 L 979 74 L 980 73 L 982 73 L 983 72 L 985 72 L 986 71 L 987 71 L 988 70 L 989 70 L 990 69 L 992 69 L 993 68 L 994 68 L 995 67 L 997 67 L 998 66 L 1001 66 L 1002 65 L 1015 65 L 1016 66 L 1019 66 L 1020 67 L 1021 67 L 1022 68 L 1023 68 L 1025 70 L 1026 70 L 1033 77 L 1033 78 L 1036 81 L 1036 82 L 1037 83 L 1037 84 L 1038 85 L 1038 87 L 1039 88 L 1039 93 L 1040 94 L 1040 103 L 1041 104 L 1041 108 L 1042 109 L 1042 112 L 1043 113 L 1043 115 L 1044 116 L 1044 118 L 1045 119 L 1045 120 L 1046 121 L 1046 122 L 1047 123 L 1047 124 L 1049 126 L 1049 127 L 1054 132 L 1055 132 L 1056 133 L 1057 133 L 1058 134 L 1066 134 L 1067 133 L 1069 133 L 1076 126 L 1076 125 L 1077 124 L 1077 122 L 1078 121 L 1078 118 L 1079 117 L 1079 111 L 1078 110 L 1078 107 L 1077 106 L 1077 104 L 1076 103 L 1076 102 L 1074 100 L 1074 99 L 1070 95 L 1070 94 L 1065 89 L 1065 88 L 1064 87 L 1064 86 L 1063 85 L 1063 80 L 1064 79 L 1064 78 L 1065 77 L 1065 76 L 1066 75 L 1066 74 L 1067 73 L 1067 72 L 1069 70 L 1069 69 L 1070 68 L 1070 67 L 1071 66 L 1071 65 L 1072 64 L 1072 62 L 1073 61 L 1073 58 L 1074 57 L 1074 53 L 1073 52 L 1073 50 L 1072 49 L 1072 48 L 1068 44 L 1067 44 L 1066 43 L 1065 43 L 1064 42 L 1062 42 L 1061 41 L 1059 41 L 1058 40 L 1057 40 L 1056 39 L 1054 39 L 1053 38 L 1052 38 L 1051 37 L 1050 37 L 1049 36 L 1048 36 L 1046 34 L 1045 34 L 1041 30 L 1040 30 L 1034 24 L 1033 24 L 1030 21 L 1029 21 L 1027 19 L 1026 19 L 1025 18 L 1024 18 L 1023 17 L 1022 17 L 1021 16 L 1020 16 L 1019 15 L 1018 15 L 1017 14 L 1016 14 L 1014 12 L 1013 12 L 1008 7 L 1008 6 L 1007 5 L 1007 0 Z"/>
        <path id="path8" fill="#eeeeee" stroke="#000000" stroke-width="5" d="M 864 0 L 865 0 L 866 1 L 871 1 L 872 2 L 875 2 L 876 1 L 880 1 L 881 0 L 883 0 Z"/>
        <path id="path9" fill="#eeeeee" stroke="#000000" stroke-width="5" d="M 699 0 L 692 7 L 692 8 L 691 9 L 691 15 L 692 16 L 692 18 L 693 19 L 693 20 L 694 21 L 694 22 L 696 24 L 696 25 L 701 30 L 701 31 L 710 40 L 710 41 L 713 44 L 713 45 L 715 47 L 715 48 L 718 51 L 718 52 L 724 58 L 724 59 L 726 61 L 726 62 L 728 64 L 728 65 L 729 66 L 729 67 L 730 68 L 730 70 L 731 71 L 731 76 L 732 77 L 732 82 L 731 83 L 731 87 L 730 88 L 730 90 L 729 91 L 729 93 L 728 94 L 728 95 L 727 96 L 727 97 L 726 98 L 726 100 L 725 101 L 725 102 L 724 103 L 724 104 L 723 105 L 723 106 L 722 107 L 722 108 L 721 109 L 721 111 L 720 112 L 720 113 L 719 114 L 719 116 L 718 117 L 718 118 L 717 119 L 717 121 L 716 122 L 716 125 L 715 126 L 715 128 L 714 129 L 714 133 L 713 134 L 713 145 L 714 146 L 714 149 L 715 150 L 715 151 L 716 152 L 716 153 L 717 154 L 717 155 L 718 156 L 718 157 L 719 158 L 719 159 L 721 161 L 721 162 L 722 163 L 722 164 L 724 166 L 724 167 L 726 169 L 726 170 L 727 171 L 727 172 L 729 174 L 729 175 L 730 176 L 730 178 L 731 179 L 731 180 L 732 181 L 732 185 L 733 186 L 733 195 L 732 196 L 732 199 L 731 200 L 731 202 L 730 203 L 730 204 L 729 205 L 729 206 L 728 207 L 728 208 L 727 209 L 727 210 L 725 212 L 725 213 L 723 215 L 723 216 L 721 218 L 721 219 L 720 220 L 720 221 L 718 223 L 718 224 L 716 226 L 716 227 L 715 228 L 715 229 L 714 230 L 714 231 L 712 233 L 712 234 L 711 235 L 711 236 L 709 238 L 709 239 L 706 242 L 706 243 L 700 249 L 827 249 L 824 246 L 824 245 L 821 242 L 821 241 L 819 239 L 819 238 L 818 237 L 818 236 L 816 234 L 816 233 L 815 232 L 815 231 L 813 229 L 813 228 L 808 223 L 807 223 L 805 221 L 804 221 L 803 220 L 801 220 L 800 219 L 799 219 L 798 218 L 796 218 L 795 217 L 794 217 L 793 216 L 792 216 L 790 214 L 790 213 L 789 212 L 789 203 L 790 202 L 790 198 L 791 197 L 791 188 L 790 187 L 790 185 L 788 183 L 788 182 L 787 181 L 786 181 L 784 179 L 783 179 L 781 177 L 780 177 L 779 176 L 777 176 L 776 175 L 775 175 L 774 174 L 772 174 L 771 173 L 770 173 L 769 172 L 768 172 L 767 171 L 765 171 L 764 170 L 763 170 L 761 168 L 760 168 L 758 166 L 757 166 L 754 163 L 754 162 L 752 160 L 752 159 L 751 158 L 751 156 L 750 155 L 750 144 L 751 143 L 751 141 L 752 140 L 752 138 L 754 136 L 754 135 L 760 129 L 761 129 L 762 128 L 763 128 L 764 127 L 766 127 L 767 126 L 775 126 L 776 127 L 779 127 L 780 128 L 783 128 L 784 129 L 785 129 L 786 130 L 788 130 L 789 131 L 790 131 L 791 132 L 792 132 L 793 133 L 794 133 L 795 134 L 796 134 L 798 136 L 799 136 L 803 140 L 803 141 L 805 143 L 805 144 L 806 145 L 806 147 L 807 148 L 807 152 L 808 153 L 808 161 L 809 162 L 809 171 L 810 172 L 810 176 L 811 177 L 811 179 L 812 180 L 812 181 L 813 182 L 813 184 L 814 185 L 814 186 L 815 187 L 815 188 L 816 189 L 816 190 L 817 191 L 817 192 L 818 193 L 818 194 L 819 195 L 819 196 L 821 198 L 821 199 L 826 204 L 827 204 L 829 206 L 830 206 L 831 207 L 832 207 L 833 208 L 835 208 L 836 209 L 837 209 L 838 210 L 840 210 L 841 211 L 842 211 L 843 212 L 844 212 L 845 213 L 846 213 L 852 219 L 852 220 L 853 221 L 853 223 L 854 224 L 854 226 L 855 227 L 855 233 L 856 234 L 856 240 L 857 241 L 857 244 L 859 246 L 859 247 L 860 248 L 861 248 L 862 249 L 885 249 L 886 248 L 888 248 L 889 247 L 890 247 L 891 246 L 892 246 L 893 245 L 894 245 L 895 244 L 896 244 L 897 243 L 898 243 L 899 242 L 900 242 L 905 237 L 905 236 L 906 235 L 906 233 L 907 232 L 907 224 L 906 223 L 906 221 L 905 220 L 905 219 L 904 218 L 904 217 L 902 215 L 902 214 L 897 209 L 896 209 L 894 207 L 893 207 L 892 206 L 891 206 L 889 204 L 888 204 L 887 203 L 886 203 L 885 202 L 884 202 L 883 201 L 882 201 L 881 200 L 880 200 L 872 192 L 872 191 L 870 189 L 870 187 L 869 186 L 869 185 L 868 184 L 868 182 L 867 181 L 867 180 L 866 179 L 866 177 L 865 176 L 865 175 L 864 174 L 864 173 L 863 172 L 863 171 L 856 164 L 855 164 L 853 162 L 852 162 L 850 160 L 849 160 L 847 158 L 846 158 L 833 145 L 833 144 L 829 140 L 828 140 L 824 136 L 823 136 L 820 133 L 819 133 L 813 127 L 813 126 L 811 124 L 811 123 L 809 121 L 809 120 L 808 119 L 808 118 L 806 116 L 806 115 L 804 113 L 804 112 L 802 110 L 802 109 L 799 106 L 799 105 L 795 101 L 795 100 L 793 98 L 793 97 L 791 95 L 791 94 L 790 93 L 790 91 L 789 90 L 789 88 L 788 87 L 788 81 L 787 80 L 787 61 L 786 60 L 786 56 L 785 55 L 785 54 L 784 53 L 784 52 L 782 50 L 781 50 L 779 48 L 778 48 L 777 47 L 776 47 L 775 46 L 773 46 L 772 45 L 770 45 L 769 44 L 767 44 L 766 43 L 764 43 L 763 42 L 760 42 L 759 41 L 757 41 L 756 40 L 754 40 L 753 39 L 751 39 L 750 38 L 748 38 L 747 37 L 745 37 L 744 36 L 743 36 L 742 35 L 741 35 L 740 34 L 739 34 L 732 27 L 732 25 L 731 24 L 731 19 L 732 18 L 732 16 L 733 15 L 733 13 L 735 11 L 735 10 L 739 6 L 740 6 L 743 3 L 744 3 L 745 2 L 747 2 L 748 1 L 756 1 L 758 3 L 759 3 L 765 9 L 765 10 L 770 15 L 771 15 L 775 19 L 776 19 L 779 22 L 780 22 L 785 27 L 786 27 L 792 33 L 792 34 L 796 38 L 797 38 L 800 41 L 801 41 L 802 42 L 803 42 L 804 43 L 806 43 L 807 44 L 808 44 L 809 45 L 811 45 L 812 46 L 813 46 L 814 47 L 815 47 L 816 48 L 817 48 L 820 51 L 821 51 L 823 53 L 823 54 L 825 56 L 825 57 L 826 58 L 826 59 L 827 60 L 827 61 L 828 62 L 828 63 L 829 64 L 829 65 L 830 66 L 830 67 L 831 68 L 831 69 L 832 70 L 832 71 L 833 72 L 833 73 L 835 75 L 835 76 L 836 77 L 836 78 L 838 80 L 838 81 L 840 83 L 840 84 L 841 85 L 841 86 L 842 87 L 842 88 L 844 90 L 844 92 L 845 93 L 845 94 L 846 95 L 846 98 L 847 99 L 847 104 L 848 105 L 848 114 L 849 115 L 849 120 L 850 121 L 850 123 L 851 124 L 851 125 L 855 129 L 856 129 L 857 130 L 858 130 L 859 131 L 861 131 L 862 132 L 872 132 L 873 131 L 874 131 L 875 130 L 876 130 L 880 126 L 880 125 L 882 123 L 882 122 L 883 121 L 883 120 L 884 119 L 884 118 L 885 117 L 885 116 L 886 115 L 886 114 L 887 113 L 887 112 L 889 110 L 889 109 L 890 108 L 890 107 L 892 105 L 892 104 L 894 102 L 894 101 L 896 99 L 896 98 L 904 90 L 905 90 L 908 87 L 909 87 L 911 85 L 912 85 L 916 81 L 916 80 L 917 79 L 917 71 L 916 70 L 916 69 L 912 65 L 911 65 L 910 64 L 909 64 L 908 63 L 906 63 L 905 62 L 903 62 L 902 61 L 898 61 L 897 60 L 895 60 L 894 59 L 893 59 L 889 55 L 889 54 L 888 53 L 888 45 L 889 44 L 889 38 L 890 37 L 890 24 L 889 23 L 889 21 L 888 20 L 888 19 L 885 16 L 884 16 L 883 15 L 877 15 L 876 16 L 875 16 L 868 23 L 868 24 L 859 33 L 858 33 L 857 34 L 855 34 L 854 35 L 845 35 L 844 34 L 843 34 L 838 29 L 838 27 L 837 26 L 837 17 L 836 16 L 836 11 L 835 10 L 835 8 L 833 6 L 833 5 L 828 0 Z"/>
        <path id="path10" fill="#facc15" stroke="#000000" stroke-width="5" d="M 322 0 L 322 2 L 321 3 L 321 4 L 320 5 L 320 6 L 319 7 L 319 8 L 318 9 L 318 11 L 317 12 L 317 13 L 316 14 L 316 15 L 313 18 L 313 19 L 312 20 L 311 20 L 309 22 L 307 22 L 306 23 L 301 23 L 300 24 L 283 24 L 282 25 L 279 25 L 278 26 L 277 26 L 276 27 L 275 27 L 274 28 L 273 28 L 266 35 L 266 36 L 264 38 L 264 39 L 262 41 L 262 42 L 260 44 L 260 45 L 259 46 L 259 47 L 258 48 L 258 49 L 256 51 L 256 52 L 255 53 L 255 54 L 253 56 L 253 57 L 251 59 L 251 60 L 249 62 L 249 63 L 246 66 L 246 67 L 242 71 L 242 72 L 236 78 L 235 78 L 234 79 L 233 79 L 232 80 L 225 80 L 223 78 L 222 78 L 219 75 L 219 74 L 218 73 L 218 72 L 217 71 L 217 68 L 216 67 L 216 57 L 217 56 L 217 42 L 216 41 L 216 39 L 215 38 L 215 37 L 214 36 L 214 35 L 212 33 L 212 32 L 203 23 L 202 23 L 201 22 L 196 22 L 195 23 L 194 23 L 189 28 L 189 29 L 187 31 L 187 32 L 186 33 L 186 34 L 185 35 L 185 36 L 184 37 L 184 38 L 183 39 L 183 41 L 182 42 L 182 44 L 181 45 L 181 47 L 180 48 L 180 50 L 179 51 L 179 54 L 178 55 L 178 58 L 177 59 L 177 61 L 176 62 L 176 64 L 175 65 L 175 67 L 174 68 L 174 70 L 173 71 L 173 74 L 174 75 L 174 77 L 175 78 L 175 79 L 178 82 L 178 83 L 188 93 L 189 93 L 199 103 L 199 104 L 200 105 L 200 106 L 201 107 L 201 108 L 202 109 L 202 111 L 203 112 L 203 116 L 204 117 L 204 119 L 203 120 L 203 126 L 202 127 L 202 129 L 201 130 L 201 131 L 200 132 L 200 133 L 199 134 L 199 135 L 189 145 L 188 145 L 186 147 L 185 147 L 184 148 L 183 148 L 182 149 L 181 149 L 180 150 L 179 150 L 178 151 L 177 151 L 176 152 L 175 152 L 174 153 L 172 153 L 171 154 L 169 154 L 168 155 L 167 155 L 166 156 L 164 156 L 163 157 L 161 157 L 160 158 L 158 158 L 157 159 L 156 159 L 155 160 L 153 160 L 152 161 L 151 161 L 150 162 L 148 162 L 147 163 L 146 163 L 145 164 L 143 164 L 142 165 L 141 165 L 140 166 L 138 166 L 137 167 L 136 167 L 135 168 L 134 168 L 132 170 L 131 170 L 129 172 L 128 172 L 124 176 L 124 177 L 123 178 L 123 179 L 122 180 L 122 181 L 121 182 L 121 185 L 120 186 L 120 190 L 121 191 L 121 193 L 122 194 L 122 195 L 123 196 L 123 197 L 125 199 L 125 200 L 134 209 L 134 210 L 136 212 L 136 213 L 137 214 L 137 217 L 138 218 L 138 223 L 137 224 L 137 227 L 136 228 L 136 229 L 135 230 L 135 231 L 134 232 L 134 233 L 131 236 L 131 237 L 121 247 L 121 248 L 120 249 L 165 249 L 168 246 L 168 245 L 172 241 L 172 240 L 173 239 L 173 238 L 174 237 L 174 236 L 175 235 L 175 234 L 176 233 L 176 230 L 177 229 L 177 221 L 176 220 L 176 216 L 175 215 L 175 213 L 174 212 L 174 210 L 173 209 L 173 207 L 172 206 L 172 204 L 171 203 L 171 202 L 170 201 L 170 199 L 169 198 L 169 196 L 168 195 L 168 192 L 167 191 L 167 177 L 168 176 L 168 175 L 170 173 L 177 173 L 178 174 L 182 174 L 183 175 L 189 175 L 190 176 L 191 175 L 196 175 L 197 174 L 198 174 L 199 173 L 200 173 L 201 172 L 202 172 L 209 165 L 209 164 L 219 154 L 219 153 L 228 144 L 228 143 L 230 141 L 230 140 L 231 139 L 231 123 L 230 122 L 230 110 L 231 109 L 231 105 L 232 104 L 232 103 L 233 102 L 233 101 L 234 100 L 234 99 L 235 98 L 235 97 L 238 94 L 239 94 L 240 93 L 241 93 L 242 92 L 243 92 L 244 91 L 246 91 L 247 90 L 251 90 L 252 89 L 255 89 L 256 88 L 258 88 L 259 87 L 262 87 L 263 86 L 264 86 L 265 85 L 267 85 L 268 84 L 269 84 L 270 83 L 271 83 L 272 82 L 273 82 L 274 81 L 275 81 L 276 80 L 277 80 L 278 79 L 280 79 L 281 78 L 283 78 L 284 77 L 292 77 L 293 78 L 294 78 L 295 79 L 296 79 L 298 81 L 299 81 L 302 84 L 302 85 L 305 88 L 305 89 L 307 91 L 307 92 L 309 94 L 309 95 L 311 97 L 311 98 L 312 99 L 312 100 L 314 102 L 314 103 L 316 105 L 316 106 L 318 108 L 318 109 L 321 112 L 321 113 L 325 117 L 325 118 L 331 124 L 331 125 L 333 127 L 333 128 L 334 129 L 334 130 L 335 131 L 335 132 L 336 133 L 336 135 L 337 136 L 337 139 L 338 140 L 338 145 L 339 146 L 339 158 L 340 159 L 340 171 L 341 172 L 341 174 L 343 176 L 344 176 L 345 177 L 347 177 L 348 178 L 351 178 L 352 179 L 354 179 L 356 181 L 356 186 L 355 187 L 355 189 L 354 190 L 354 192 L 353 193 L 353 194 L 352 195 L 352 197 L 351 198 L 351 200 L 350 201 L 350 203 L 349 204 L 349 206 L 348 207 L 348 209 L 347 210 L 347 211 L 346 212 L 346 214 L 345 215 L 345 216 L 343 218 L 343 219 L 341 221 L 341 222 L 339 224 L 339 225 L 335 229 L 335 230 L 332 233 L 332 234 L 330 236 L 330 237 L 328 239 L 328 240 L 327 241 L 327 242 L 326 243 L 326 244 L 324 246 L 324 247 L 323 248 L 323 249 L 380 249 L 379 248 L 379 247 L 377 245 L 377 243 L 376 242 L 376 236 L 377 235 L 377 234 L 378 233 L 378 232 L 379 231 L 379 230 L 383 226 L 383 225 L 389 219 L 389 218 L 392 215 L 392 214 L 394 212 L 394 211 L 396 209 L 396 208 L 397 207 L 397 206 L 398 205 L 398 204 L 399 203 L 399 202 L 400 201 L 400 200 L 401 199 L 401 198 L 402 197 L 402 196 L 403 195 L 403 194 L 404 193 L 404 192 L 405 191 L 405 190 L 406 189 L 406 188 L 410 184 L 419 184 L 420 185 L 422 185 L 423 186 L 424 186 L 425 187 L 426 187 L 431 192 L 431 193 L 432 194 L 432 195 L 433 196 L 433 198 L 434 199 L 434 206 L 435 207 L 435 218 L 436 219 L 436 224 L 437 225 L 437 228 L 438 229 L 438 230 L 439 231 L 439 232 L 440 233 L 440 234 L 442 236 L 442 237 L 449 244 L 449 245 L 452 248 L 452 249 L 479 249 L 479 246 L 480 245 L 480 243 L 481 242 L 481 241 L 482 240 L 482 239 L 483 238 L 483 237 L 484 236 L 484 235 L 485 234 L 485 233 L 486 232 L 486 231 L 488 229 L 488 228 L 489 227 L 489 226 L 490 225 L 490 224 L 491 223 L 491 222 L 492 221 L 492 220 L 493 219 L 493 218 L 494 217 L 494 211 L 493 210 L 493 209 L 472 188 L 472 187 L 468 183 L 468 182 L 466 180 L 466 179 L 465 178 L 465 177 L 464 176 L 464 175 L 463 174 L 463 173 L 462 172 L 462 168 L 461 167 L 461 144 L 460 143 L 460 138 L 459 137 L 459 129 L 458 128 L 458 127 L 459 126 L 459 121 L 460 120 L 460 118 L 461 117 L 461 116 L 462 115 L 462 114 L 463 113 L 463 112 L 466 109 L 466 108 L 473 101 L 474 101 L 476 99 L 477 99 L 478 98 L 479 98 L 480 97 L 482 97 L 483 96 L 485 96 L 486 95 L 489 95 L 490 94 L 494 94 L 495 93 L 515 93 L 516 94 L 518 94 L 519 95 L 520 95 L 521 96 L 522 96 L 524 98 L 524 99 L 525 100 L 525 101 L 526 102 L 526 106 L 525 107 L 525 110 L 524 111 L 524 112 L 523 113 L 523 115 L 522 116 L 522 117 L 521 118 L 521 119 L 520 120 L 520 121 L 518 123 L 518 124 L 517 125 L 517 126 L 515 128 L 515 129 L 512 132 L 512 133 L 508 137 L 508 138 L 504 142 L 504 143 L 503 144 L 503 145 L 502 146 L 502 148 L 501 149 L 501 152 L 502 153 L 502 155 L 503 156 L 503 157 L 504 158 L 504 159 L 507 162 L 507 163 L 509 165 L 509 166 L 511 168 L 511 169 L 512 170 L 512 171 L 513 172 L 513 173 L 514 174 L 514 176 L 515 177 L 515 187 L 514 188 L 514 190 L 513 191 L 513 193 L 512 194 L 512 195 L 511 196 L 511 197 L 510 198 L 510 199 L 509 200 L 509 202 L 508 203 L 508 204 L 507 205 L 507 212 L 511 216 L 511 217 L 516 222 L 516 223 L 517 224 L 517 225 L 518 226 L 518 227 L 519 228 L 519 230 L 520 231 L 520 237 L 521 238 L 521 249 L 565 249 L 564 248 L 564 246 L 563 245 L 563 244 L 562 243 L 562 241 L 561 240 L 561 239 L 560 238 L 560 236 L 559 235 L 559 234 L 558 233 L 558 232 L 556 230 L 556 229 L 546 219 L 545 219 L 540 214 L 540 213 L 538 211 L 538 210 L 537 209 L 537 208 L 536 207 L 536 206 L 535 205 L 535 203 L 534 202 L 534 187 L 535 186 L 535 185 L 536 184 L 536 182 L 538 180 L 538 179 L 544 173 L 545 173 L 547 171 L 548 171 L 549 170 L 550 170 L 551 169 L 552 169 L 553 168 L 557 168 L 558 167 L 562 167 L 563 168 L 566 168 L 567 169 L 569 169 L 570 170 L 571 170 L 573 172 L 574 172 L 575 173 L 576 173 L 580 177 L 581 177 L 586 182 L 586 183 L 589 186 L 589 187 L 590 188 L 590 189 L 591 190 L 591 191 L 592 192 L 592 195 L 593 196 L 593 202 L 594 203 L 594 211 L 595 212 L 595 215 L 596 216 L 596 217 L 597 218 L 597 219 L 598 220 L 598 221 L 601 224 L 601 225 L 605 229 L 605 230 L 607 232 L 607 233 L 609 235 L 609 236 L 610 237 L 610 239 L 611 240 L 611 242 L 612 243 L 612 249 L 681 249 L 681 248 L 680 247 L 680 239 L 679 238 L 679 223 L 678 222 L 678 214 L 677 213 L 677 210 L 676 209 L 676 207 L 675 206 L 675 205 L 673 203 L 673 202 L 671 200 L 670 200 L 668 198 L 667 198 L 666 197 L 665 197 L 664 196 L 662 196 L 661 195 L 655 195 L 654 194 L 646 194 L 645 193 L 641 193 L 640 192 L 637 192 L 636 191 L 635 191 L 634 190 L 632 190 L 630 188 L 629 188 L 628 187 L 627 187 L 621 181 L 621 180 L 620 179 L 620 178 L 619 177 L 619 176 L 618 175 L 618 164 L 619 163 L 619 162 L 620 161 L 620 160 L 621 159 L 621 158 L 626 153 L 627 153 L 629 151 L 631 151 L 632 150 L 635 150 L 636 149 L 647 149 L 648 150 L 651 150 L 652 151 L 655 151 L 656 152 L 657 152 L 658 153 L 660 153 L 661 154 L 662 154 L 663 155 L 664 155 L 665 156 L 667 156 L 668 157 L 675 157 L 676 156 L 677 156 L 679 154 L 679 153 L 680 152 L 680 150 L 681 149 L 681 143 L 680 142 L 680 139 L 679 138 L 679 135 L 678 134 L 678 131 L 677 130 L 677 126 L 676 125 L 676 116 L 677 115 L 677 112 L 678 111 L 678 109 L 679 108 L 679 107 L 680 106 L 680 105 L 681 104 L 681 103 L 682 102 L 682 101 L 684 99 L 684 98 L 686 96 L 686 95 L 688 93 L 688 92 L 689 91 L 689 90 L 691 88 L 691 87 L 692 86 L 692 85 L 693 84 L 693 82 L 694 81 L 694 78 L 695 77 L 695 73 L 694 72 L 694 70 L 690 66 L 689 66 L 688 65 L 687 65 L 686 64 L 684 64 L 683 63 L 681 63 L 680 62 L 677 62 L 676 61 L 673 61 L 672 60 L 669 60 L 668 59 L 665 59 L 664 58 L 662 58 L 661 57 L 659 57 L 658 56 L 657 56 L 656 55 L 655 55 L 654 54 L 653 54 L 652 53 L 651 53 L 649 51 L 648 51 L 644 47 L 644 46 L 643 45 L 643 44 L 642 43 L 642 39 L 643 38 L 643 37 L 644 36 L 644 35 L 649 30 L 650 30 L 653 27 L 654 27 L 656 25 L 657 25 L 659 23 L 660 23 L 662 21 L 663 21 L 665 19 L 666 19 L 668 17 L 669 17 L 671 15 L 672 15 L 674 13 L 675 13 L 679 9 L 679 8 L 680 7 L 680 6 L 681 5 L 681 0 L 613 0 L 613 8 L 612 9 L 612 13 L 611 14 L 611 15 L 610 16 L 610 17 L 608 19 L 607 19 L 606 20 L 600 20 L 599 19 L 597 19 L 596 18 L 594 18 L 593 17 L 592 17 L 591 16 L 590 16 L 589 15 L 588 15 L 587 14 L 586 14 L 585 13 L 583 13 L 582 12 L 581 12 L 580 11 L 579 11 L 577 9 L 576 9 L 575 8 L 574 8 L 572 6 L 571 6 L 566 1 L 566 0 L 521 0 L 521 6 L 522 7 L 522 8 L 524 10 L 525 10 L 526 11 L 528 11 L 529 12 L 531 12 L 532 13 L 534 13 L 535 14 L 537 14 L 538 15 L 539 15 L 540 16 L 541 16 L 547 22 L 547 23 L 548 24 L 548 25 L 549 26 L 549 28 L 550 29 L 550 33 L 551 34 L 551 48 L 550 49 L 550 51 L 549 52 L 549 53 L 545 57 L 544 57 L 543 58 L 540 58 L 539 59 L 537 59 L 536 58 L 532 58 L 531 57 L 530 57 L 529 56 L 527 56 L 525 54 L 524 54 L 517 47 L 517 46 L 516 45 L 516 44 L 515 43 L 515 40 L 514 39 L 514 26 L 515 25 L 515 19 L 514 18 L 514 16 L 512 14 L 511 14 L 510 13 L 509 13 L 508 12 L 504 12 L 503 11 L 499 11 L 498 10 L 495 10 L 494 9 L 491 9 L 490 8 L 489 8 L 488 7 L 486 7 L 484 5 L 483 5 L 480 2 L 480 0 L 452 0 L 453 1 L 453 3 L 452 4 L 452 5 L 448 9 L 447 9 L 445 11 L 444 11 L 441 14 L 440 14 L 435 19 L 435 20 L 433 22 L 433 23 L 432 24 L 432 26 L 431 27 L 431 30 L 430 31 L 430 35 L 429 36 L 429 42 L 428 43 L 428 48 L 427 49 L 427 51 L 423 55 L 422 55 L 421 56 L 417 56 L 416 57 L 396 57 L 395 56 L 390 56 L 389 55 L 387 55 L 386 54 L 385 54 L 381 50 L 381 49 L 380 48 L 380 46 L 379 45 L 379 38 L 380 37 L 380 33 L 381 32 L 381 29 L 382 28 L 382 26 L 383 25 L 383 22 L 384 21 L 384 19 L 385 18 L 385 16 L 386 15 L 386 8 L 385 7 L 385 5 L 382 2 L 382 1 L 381 0 Z"/>
        <path id="path11" fill="#facc15" stroke="#000000" stroke-width="5" d="M 27 0 L 29 2 L 29 3 L 30 4 L 30 13 L 29 14 L 29 16 L 28 17 L 28 18 L 27 19 L 27 20 L 26 21 L 26 22 L 24 24 L 24 25 L 22 27 L 22 28 L 20 30 L 20 31 L 19 32 L 19 33 L 17 35 L 17 36 L 16 37 L 16 39 L 15 40 L 15 41 L 14 42 L 14 46 L 13 47 L 13 60 L 14 61 L 14 65 L 15 66 L 15 68 L 16 69 L 16 71 L 17 72 L 17 74 L 18 75 L 18 76 L 19 77 L 19 78 L 20 79 L 20 80 L 21 81 L 21 82 L 23 84 L 23 85 L 24 86 L 24 87 L 25 88 L 25 89 L 26 90 L 26 91 L 27 92 L 27 94 L 28 95 L 28 104 L 27 105 L 27 107 L 26 108 L 26 109 L 25 110 L 25 111 L 24 112 L 24 114 L 23 115 L 23 116 L 22 117 L 22 119 L 21 120 L 21 121 L 20 122 L 20 124 L 19 125 L 19 126 L 18 127 L 18 129 L 17 130 L 17 132 L 16 133 L 16 135 L 15 136 L 15 138 L 14 139 L 14 141 L 13 142 L 13 143 L 12 144 L 12 146 L 11 147 L 11 149 L 10 150 L 10 152 L 9 153 L 9 154 L 8 155 L 8 156 L 7 157 L 7 158 L 6 159 L 6 160 L 5 161 L 5 162 L 3 164 L 3 165 L 0 168 L 0 247 L 1 247 L 2 246 L 20 246 L 21 247 L 23 247 L 24 248 L 25 248 L 26 249 L 86 249 L 93 242 L 93 241 L 95 239 L 95 238 L 96 237 L 96 236 L 97 235 L 97 233 L 98 232 L 98 229 L 99 228 L 99 217 L 98 216 L 98 213 L 97 212 L 97 211 L 96 210 L 96 209 L 94 207 L 94 206 L 83 195 L 83 194 L 82 193 L 82 192 L 81 191 L 81 189 L 80 188 L 80 185 L 81 184 L 81 182 L 82 181 L 82 179 L 84 177 L 84 176 L 88 172 L 88 171 L 105 154 L 105 153 L 109 149 L 110 149 L 113 146 L 114 146 L 115 145 L 116 145 L 117 144 L 119 144 L 120 143 L 133 143 L 134 144 L 138 144 L 139 145 L 143 145 L 144 146 L 152 146 L 153 145 L 153 144 L 154 143 L 154 141 L 155 140 L 155 127 L 154 126 L 154 120 L 153 119 L 153 114 L 152 113 L 152 104 L 153 103 L 153 101 L 154 100 L 154 99 L 155 98 L 155 97 L 156 96 L 156 95 L 157 94 L 157 93 L 159 91 L 159 90 L 161 88 L 161 87 L 163 85 L 163 84 L 164 83 L 164 82 L 166 80 L 166 79 L 167 78 L 167 76 L 168 75 L 168 73 L 167 72 L 167 71 L 166 70 L 166 69 L 165 68 L 165 67 L 161 63 L 161 62 L 155 56 L 154 56 L 142 44 L 142 43 L 140 41 L 140 39 L 139 38 L 139 31 L 140 30 L 140 28 L 141 27 L 141 26 L 143 24 L 143 23 L 148 18 L 148 17 L 160 5 L 160 4 L 164 0 L 119 0 L 118 1 L 118 2 L 116 4 L 116 5 L 115 6 L 115 7 L 114 8 L 114 10 L 113 11 L 113 13 L 112 14 L 112 15 L 111 16 L 111 18 L 110 19 L 110 21 L 109 22 L 109 24 L 108 25 L 108 26 L 107 27 L 107 29 L 106 30 L 106 31 L 105 32 L 105 34 L 104 35 L 104 36 L 103 37 L 103 39 L 102 40 L 102 44 L 101 45 L 101 53 L 102 54 L 102 59 L 103 60 L 103 64 L 104 65 L 104 70 L 105 71 L 105 76 L 106 77 L 106 83 L 107 84 L 107 96 L 106 97 L 106 99 L 105 100 L 105 101 L 104 102 L 104 103 L 98 109 L 97 109 L 95 111 L 94 111 L 93 112 L 92 112 L 90 114 L 89 114 L 88 115 L 87 115 L 86 116 L 85 116 L 84 117 L 83 117 L 82 118 L 81 118 L 80 119 L 78 119 L 77 120 L 75 120 L 74 121 L 68 121 L 67 120 L 66 120 L 65 119 L 64 119 L 57 112 L 57 111 L 56 110 L 56 109 L 55 108 L 55 107 L 54 106 L 54 104 L 53 103 L 53 97 L 54 96 L 54 94 L 55 93 L 55 92 L 56 91 L 56 89 L 57 88 L 57 87 L 58 86 L 58 85 L 59 84 L 59 83 L 60 82 L 60 81 L 61 80 L 61 79 L 62 78 L 62 76 L 63 75 L 63 74 L 64 73 L 64 71 L 65 70 L 65 68 L 66 67 L 66 65 L 67 64 L 67 61 L 68 60 L 68 57 L 69 56 L 69 52 L 70 51 L 70 24 L 71 23 L 71 20 L 72 19 L 72 17 L 73 16 L 73 15 L 74 14 L 74 13 L 75 12 L 75 11 L 78 8 L 78 7 L 85 0 Z"/>
    </g>
    <text id="PreFab" xml:space="preserve" x="311" y="213" font-family="DM Serif Text" font-size="250" fill="#eeeeee">PreFab</text>
    <path id="path12" fill="none" stroke="#eeeeee" stroke-width="10" d="M 50 25 L 250 25 L 250 225 L 50 225 Z"/>
</svg>
