<?xml version="1.0" encoding="UTF-8"?>
<!-- Generated by Pixelmator Pro 3.7.1 -->
<svg width="226" height="226" viewBox="0 0 226 226" xmlns="http://www.w3.org/2000/svg">
    <g id="frame">
        <path id="path1" fill="#ffffff" stroke="none" d="M 3 3 L 223 3 L 223 223 L 3 223 Z"/>
        <path id="path2" fill="#000000" fill-rule="evenodd" stroke="none" d="M 226 0 L 0 0 L 0 226 L 226 226 L 226 0 Z M 223 3 L 3 3 L 3 223 L 223 223 L 223 3 Z"/>
    </g>
    <clipPath id="clipPath1">
        <path d="M 13 13 L 213 13 L 213 213 L 13 213 Z"/>
    </clipPath>
    <g id="pattern" clip-path="url(#clipPath1)">
        <path id="Rectangle" fill="#4338ca" fill-rule="evenodd" stroke="none" d="M 13 213 L 213 213 L 213 13 L 13 13 Z"/>
        <path id="path3" fill="#facc15" stroke="#000000" stroke-width="5" d="M 187 190 L 186 191 L 184 191 L 183 192 L 182 192 L 181 193 L 180 193 L 178 195 L 177 195 L 176 196 L 176 197 L 173 200 L 173 201 L 172 202 L 172 203 L 171 204 L 171 205 L 170 206 L 170 208 L 169 209 L 169 211 L 168 212 L 168 223 L 169 224 L 169 225 L 171 227 L 172 227 L 173 228 L 179 228 L 180 227 L 183 227 L 184 226 L 186 226 L 187 225 L 189 225 L 190 224 L 191 224 L 192 223 L 194 223 L 195 222 L 196 222 L 197 221 L 198 221 L 200 219 L 201 219 L 202 218 L 203 218 L 209 212 L 209 211 L 210 210 L 210 209 L 211 208 L 211 206 L 212 205 L 212 201 L 211 200 L 211 198 L 210 197 L 210 196 L 207 193 L 206 193 L 205 192 L 204 192 L 203 191 L 201 191 L 200 190 Z"/>
        <path id="path4" fill="#facc15" stroke="#000000" stroke-width="5" d="M 1062 158 L 1059 161 L 1059 162 L 1057 164 L 1057 165 L 1055 167 L 1055 168 L 1054 169 L 1054 171 L 1053 172 L 1053 174 L 1052 175 L 1052 181 L 1051 182 L 1051 202 L 1050 203 L 1050 211 L 1049 212 L 1049 217 L 1048 218 L 1048 220 L 1047 221 L 1047 224 L 1046 225 L 1046 232 L 1049 235 L 1051 235 L 1052 236 L 1056 236 L 1057 235 L 1062 235 Z"/>
        <path id="path5" fill="#facc15" stroke="#000000" stroke-width="5" d="M 995 157 L 994 158 L 991 158 L 990 159 L 989 159 L 988 160 L 987 160 L 985 162 L 985 163 L 984 164 L 984 165 L 983 166 L 983 168 L 982 169 L 982 171 L 981 172 L 981 174 L 980 175 L 980 177 L 979 178 L 979 180 L 978 181 L 978 183 L 977 184 L 977 185 L 976 186 L 976 187 L 975 188 L 975 189 L 974 190 L 974 191 L 973 192 L 973 193 L 972 194 L 972 195 L 970 197 L 970 198 L 968 200 L 968 201 L 962 207 L 961 207 L 959 209 L 958 209 L 957 210 L 956 210 L 955 211 L 954 211 L 953 212 L 952 212 L 951 213 L 949 213 L 948 214 L 947 214 L 946 215 L 944 215 L 942 217 L 941 217 L 937 221 L 937 222 L 934 225 L 934 226 L 927 233 L 926 233 L 924 235 L 923 235 L 922 236 L 921 236 L 920 237 L 919 237 L 970 237 L 970 235 L 971 234 L 971 233 L 972 232 L 972 231 L 973 230 L 973 229 L 977 225 L 978 225 L 980 223 L 981 223 L 982 222 L 984 222 L 985 221 L 987 221 L 988 220 L 990 220 L 991 219 L 994 219 L 995 218 L 997 218 L 998 217 L 999 217 L 1000 216 L 1001 216 L 1002 215 L 1003 215 L 1006 212 L 1006 211 L 1007 210 L 1007 209 L 1008 208 L 1008 205 L 1009 204 L 1009 200 L 1010 199 L 1010 195 L 1011 194 L 1011 191 L 1012 190 L 1012 187 L 1013 186 L 1013 183 L 1014 182 L 1014 179 L 1015 178 L 1015 173 L 1016 172 L 1016 168 L 1015 167 L 1015 165 L 1014 164 L 1014 163 L 1010 159 L 1009 159 L 1008 158 L 1006 158 L 1005 157 Z"/>
        <path id="path6" fill="#facc15" stroke="#000000" stroke-width="5" d="M 244 124 L 243 125 L 240 125 L 239 126 L 238 126 L 237 127 L 236 127 L 235 128 L 234 128 L 233 129 L 232 129 L 229 132 L 228 132 L 228 133 L 226 135 L 226 136 L 225 137 L 225 139 L 224 140 L 224 147 L 225 148 L 225 152 L 226 153 L 226 155 L 227 156 L 227 158 L 228 159 L 228 160 L 229 161 L 229 162 L 230 163 L 230 164 L 232 166 L 232 167 L 235 170 L 236 170 L 238 172 L 239 172 L 240 173 L 241 173 L 242 174 L 243 174 L 244 175 L 245 175 L 246 176 L 247 176 L 249 178 L 250 178 L 252 180 L 253 180 L 257 184 L 257 185 L 260 188 L 260 189 L 262 191 L 262 192 L 266 196 L 267 196 L 268 197 L 269 197 L 270 198 L 278 198 L 279 197 L 281 197 L 282 196 L 283 196 L 285 194 L 286 194 L 290 190 L 290 189 L 292 187 L 292 186 L 293 185 L 293 184 L 294 183 L 294 181 L 295 180 L 295 172 L 293 170 L 292 170 L 291 169 L 289 169 L 288 168 L 285 168 L 284 167 L 282 167 L 281 166 L 280 166 L 279 165 L 278 165 L 277 164 L 276 164 L 271 159 L 271 158 L 270 157 L 270 156 L 269 155 L 269 154 L 268 153 L 268 150 L 267 149 L 267 146 L 266 145 L 266 142 L 265 141 L 265 138 L 264 137 L 264 135 L 263 134 L 263 133 L 262 132 L 262 131 L 257 126 L 256 126 L 255 125 L 253 125 L 252 124 Z"/>
        <path id="path7" fill="#facc15" stroke="#000000" stroke-width="5" d="M 934 105 L 933 106 L 931 106 L 925 112 L 925 113 L 923 115 L 923 116 L 922 117 L 922 118 L 921 119 L 921 120 L 920 121 L 920 122 L 919 123 L 919 125 L 918 126 L 918 127 L 917 128 L 917 130 L 916 131 L 916 134 L 915 135 L 915 138 L 914 139 L 914 156 L 913 157 L 913 160 L 912 161 L 912 162 L 907 167 L 906 167 L 903 170 L 902 170 L 898 174 L 898 175 L 896 177 L 896 178 L 894 180 L 894 182 L 893 183 L 893 185 L 892 186 L 892 189 L 891 190 L 891 198 L 892 199 L 892 201 L 893 202 L 893 203 L 897 207 L 898 207 L 899 208 L 901 208 L 902 209 L 918 209 L 919 208 L 922 208 L 924 206 L 925 206 L 926 205 L 926 204 L 927 203 L 927 202 L 928 201 L 928 189 L 927 188 L 927 183 L 926 182 L 926 178 L 925 177 L 925 169 L 930 164 L 931 164 L 932 163 L 933 163 L 934 162 L 936 162 L 937 161 L 939 161 L 940 160 L 943 160 L 944 159 L 946 159 L 947 158 L 950 158 L 951 157 L 954 157 L 955 156 L 958 156 L 959 155 L 961 155 L 962 154 L 963 154 L 964 153 L 965 153 L 966 152 L 967 152 L 970 149 L 970 148 L 971 147 L 971 140 L 970 139 L 970 136 L 969 135 L 969 134 L 968 133 L 968 131 L 967 130 L 967 129 L 966 128 L 966 127 L 965 126 L 965 125 L 964 124 L 964 123 L 962 121 L 962 120 L 960 118 L 960 117 L 953 110 L 952 110 L 950 108 L 949 108 L 948 107 L 946 107 L 945 106 L 942 106 L 941 105 Z"/>
        <path id="path8" fill="#facc15" stroke="#000000" stroke-width="5" d="M 916 -12 L 915 -11 L 913 -11 L 912 -10 L 910 -10 L 909 -9 L 907 -9 L 906 -8 L 904 -8 L 903 -7 L 902 -7 L 901 -6 L 900 -6 L 899 -5 L 898 -5 L 897 -4 L 896 -4 L 893 -1 L 893 0 L 892 1 L 892 2 L 891 3 L 891 8 L 890 9 L 890 15 L 891 16 L 891 21 L 892 22 L 892 25 L 893 26 L 893 28 L 895 30 L 895 31 L 900 36 L 901 36 L 902 37 L 904 37 L 905 38 L 907 38 L 908 39 L 910 39 L 911 40 L 914 40 L 915 41 L 918 41 L 919 42 L 921 42 L 922 43 L 924 43 L 925 44 L 926 44 L 927 45 L 928 45 L 933 50 L 933 51 L 934 52 L 934 53 L 935 54 L 935 55 L 936 56 L 936 59 L 937 60 L 937 61 L 938 62 L 942 62 L 943 61 L 945 61 L 946 60 L 948 60 L 949 59 L 950 59 L 951 58 L 952 58 L 953 57 L 955 57 L 956 56 L 957 56 L 958 55 L 960 55 L 961 54 L 964 54 L 965 53 L 978 53 L 979 54 L 982 54 L 983 55 L 984 55 L 985 56 L 986 56 L 988 58 L 989 58 L 996 65 L 996 66 L 999 69 L 999 70 L 1000 71 L 1000 72 L 1001 73 L 1001 75 L 1002 76 L 1002 81 L 1003 82 L 1003 91 L 1004 92 L 1004 96 L 1005 97 L 1005 100 L 1006 101 L 1006 103 L 1007 104 L 1007 106 L 1008 107 L 1008 108 L 1009 109 L 1009 110 L 1010 111 L 1010 112 L 1012 114 L 1012 115 L 1017 120 L 1018 120 L 1019 121 L 1020 121 L 1021 122 L 1029 122 L 1030 121 L 1032 121 L 1039 114 L 1039 113 L 1040 112 L 1040 110 L 1041 109 L 1041 106 L 1042 105 L 1042 99 L 1041 98 L 1041 95 L 1040 94 L 1040 92 L 1039 91 L 1039 90 L 1037 88 L 1037 87 L 1033 83 L 1033 82 L 1028 77 L 1028 76 L 1027 75 L 1027 74 L 1026 73 L 1026 68 L 1027 67 L 1027 66 L 1028 65 L 1028 64 L 1029 63 L 1029 62 L 1030 61 L 1030 60 L 1032 58 L 1032 57 L 1033 56 L 1033 55 L 1034 54 L 1034 53 L 1035 52 L 1035 50 L 1036 49 L 1036 46 L 1037 45 L 1037 41 L 1036 40 L 1036 38 L 1035 37 L 1035 36 L 1031 32 L 1030 32 L 1029 31 L 1028 31 L 1027 30 L 1025 30 L 1024 29 L 1022 29 L 1021 28 L 1020 28 L 1019 27 L 1017 27 L 1016 26 L 1015 26 L 1014 25 L 1013 25 L 1012 24 L 1011 24 L 1009 22 L 1008 22 L 1004 18 L 1003 18 L 997 12 L 996 12 L 993 9 L 992 9 L 990 7 L 989 7 L 988 6 L 987 6 L 986 5 L 985 5 L 984 4 L 983 4 L 982 3 L 981 3 L 980 2 L 979 2 L 977 0 L 976 0 L 971 -5 L 971 -6 L 970 -7 L 970 -12 Z"/>
        <path id="path9" fill="#facc15" stroke="#000000" stroke-width="5" d="M 662 -12 L 655 -5 L 655 -4 L 654 -3 L 654 3 L 655 4 L 655 6 L 656 7 L 656 8 L 657 9 L 657 10 L 659 12 L 659 13 L 664 18 L 664 19 L 673 28 L 673 29 L 676 32 L 676 33 L 678 35 L 678 36 L 681 39 L 681 40 L 687 46 L 687 47 L 689 49 L 689 50 L 691 52 L 691 53 L 692 54 L 692 55 L 693 56 L 693 58 L 694 59 L 694 64 L 695 65 L 695 70 L 694 71 L 694 75 L 693 76 L 693 78 L 692 79 L 692 81 L 691 82 L 691 83 L 690 84 L 690 85 L 689 86 L 689 88 L 688 89 L 688 90 L 687 91 L 687 92 L 686 93 L 686 94 L 685 95 L 685 96 L 684 97 L 684 99 L 683 100 L 683 101 L 682 102 L 682 104 L 681 105 L 681 106 L 680 107 L 680 109 L 679 110 L 679 113 L 678 114 L 678 116 L 677 117 L 677 121 L 676 122 L 676 133 L 677 134 L 677 137 L 678 138 L 678 139 L 679 140 L 679 141 L 680 142 L 680 143 L 681 144 L 681 145 L 682 146 L 682 147 L 684 149 L 684 150 L 685 151 L 685 152 L 687 154 L 687 155 L 689 157 L 689 158 L 690 159 L 690 160 L 692 162 L 692 163 L 693 164 L 693 166 L 694 167 L 694 168 L 695 169 L 695 173 L 696 174 L 696 183 L 695 184 L 695 187 L 694 188 L 694 190 L 693 191 L 693 192 L 692 193 L 692 194 L 691 195 L 691 196 L 690 197 L 690 198 L 688 200 L 688 201 L 686 203 L 686 204 L 684 206 L 684 207 L 683 208 L 683 209 L 681 211 L 681 212 L 679 214 L 679 215 L 678 216 L 678 217 L 677 218 L 677 219 L 675 221 L 675 222 L 674 223 L 674 224 L 672 226 L 672 227 L 669 230 L 669 231 L 663 237 L 790 237 L 787 234 L 787 233 L 784 230 L 784 229 L 782 227 L 782 226 L 781 225 L 781 224 L 779 222 L 779 221 L 778 220 L 778 219 L 776 217 L 776 216 L 771 211 L 770 211 L 768 209 L 767 209 L 766 208 L 764 208 L 763 207 L 762 207 L 761 206 L 759 206 L 758 205 L 757 205 L 756 204 L 755 204 L 753 202 L 753 201 L 752 200 L 752 191 L 753 190 L 753 186 L 754 185 L 754 176 L 753 175 L 753 173 L 751 171 L 751 170 L 750 169 L 749 169 L 747 167 L 746 167 L 744 165 L 743 165 L 742 164 L 740 164 L 739 163 L 738 163 L 737 162 L 735 162 L 734 161 L 733 161 L 732 160 L 731 160 L 730 159 L 728 159 L 727 158 L 726 158 L 724 156 L 723 156 L 721 154 L 720 154 L 717 151 L 717 150 L 715 148 L 715 147 L 714 146 L 714 144 L 713 143 L 713 132 L 714 131 L 714 129 L 715 128 L 715 126 L 717 124 L 717 123 L 723 117 L 724 117 L 725 116 L 726 116 L 727 115 L 729 115 L 730 114 L 738 114 L 739 115 L 742 115 L 743 116 L 746 116 L 747 117 L 748 117 L 749 118 L 751 118 L 752 119 L 753 119 L 754 120 L 755 120 L 756 121 L 757 121 L 758 122 L 759 122 L 761 124 L 762 124 L 766 128 L 766 129 L 768 131 L 768 132 L 769 133 L 769 135 L 770 136 L 770 140 L 771 141 L 771 149 L 772 150 L 772 159 L 773 160 L 773 164 L 774 165 L 774 167 L 775 168 L 775 169 L 776 170 L 776 172 L 777 173 L 777 174 L 778 175 L 778 176 L 779 177 L 779 178 L 780 179 L 780 180 L 781 181 L 781 182 L 782 183 L 782 184 L 784 186 L 784 187 L 789 192 L 790 192 L 792 194 L 793 194 L 794 195 L 795 195 L 796 196 L 798 196 L 799 197 L 800 197 L 801 198 L 803 198 L 804 199 L 805 199 L 806 200 L 807 200 L 808 201 L 809 201 L 815 207 L 815 208 L 816 209 L 816 211 L 817 212 L 817 214 L 818 215 L 818 221 L 819 222 L 819 228 L 820 229 L 820 232 L 822 234 L 822 235 L 823 236 L 824 236 L 825 237 L 848 237 L 849 236 L 851 236 L 852 235 L 853 235 L 854 234 L 855 234 L 856 233 L 857 233 L 858 232 L 859 232 L 860 231 L 861 231 L 862 230 L 863 230 L 868 225 L 868 224 L 869 223 L 869 221 L 870 220 L 870 212 L 869 211 L 869 209 L 868 208 L 868 207 L 867 206 L 867 205 L 865 203 L 865 202 L 860 197 L 859 197 L 857 195 L 856 195 L 855 194 L 854 194 L 852 192 L 851 192 L 850 191 L 849 191 L 848 190 L 847 190 L 846 189 L 845 189 L 844 188 L 843 188 L 835 180 L 835 179 L 833 177 L 833 175 L 832 174 L 832 173 L 831 172 L 831 170 L 830 169 L 830 168 L 829 167 L 829 165 L 828 164 L 828 163 L 827 162 L 827 161 L 826 160 L 826 159 L 819 152 L 818 152 L 816 150 L 815 150 L 813 148 L 812 148 L 810 146 L 809 146 L 796 133 L 796 132 L 792 128 L 791 128 L 787 124 L 786 124 L 783 121 L 782 121 L 776 115 L 776 114 L 774 112 L 774 111 L 772 109 L 772 108 L 771 107 L 771 106 L 769 104 L 769 103 L 767 101 L 767 100 L 765 98 L 765 97 L 762 94 L 762 93 L 758 89 L 758 88 L 756 86 L 756 85 L 754 83 L 754 82 L 753 81 L 753 79 L 752 78 L 752 76 L 751 75 L 751 69 L 750 68 L 750 49 L 749 48 L 749 44 L 748 43 L 748 42 L 747 41 L 747 40 L 745 38 L 744 38 L 742 36 L 741 36 L 740 35 L 739 35 L 738 34 L 736 34 L 735 33 L 733 33 L 732 32 L 730 32 L 729 31 L 727 31 L 726 30 L 723 30 L 722 29 L 720 29 L 719 28 L 717 28 L 716 27 L 714 27 L 713 26 L 711 26 L 710 25 L 708 25 L 707 24 L 706 24 L 705 23 L 704 23 L 703 22 L 702 22 L 695 15 L 695 13 L 694 12 L 694 7 L 695 6 L 695 4 L 696 3 L 696 1 L 698 -1 L 698 -2 L 702 -6 L 703 -6 L 706 -9 L 707 -9 L 708 -10 L 710 -10 L 711 -11 L 719 -11 L 721 -9 L 722 -9 L 728 -3 L 728 -2 L 733 3 L 734 3 L 738 7 L 739 7 L 742 10 L 743 10 L 748 15 L 749 15 L 755 21 L 755 22 L 759 26 L 760 26 L 763 29 L 764 29 L 765 30 L 766 30 L 767 31 L 769 31 L 770 32 L 771 32 L 772 33 L 774 33 L 775 34 L 776 34 L 777 35 L 778 35 L 779 36 L 780 36 L 783 39 L 784 39 L 786 41 L 786 42 L 788 44 L 788 45 L 789 46 L 789 47 L 790 48 L 790 49 L 791 50 L 791 51 L 792 52 L 792 53 L 793 54 L 793 55 L 794 56 L 794 57 L 795 58 L 795 59 L 796 60 L 796 61 L 798 63 L 798 64 L 799 65 L 799 66 L 801 68 L 801 69 L 803 71 L 803 72 L 804 73 L 804 74 L 805 75 L 805 76 L 807 78 L 807 80 L 808 81 L 808 82 L 809 83 L 809 86 L 810 87 L 810 92 L 811 93 L 811 102 L 812 103 L 812 108 L 813 109 L 813 111 L 814 112 L 814 113 L 818 117 L 819 117 L 820 118 L 821 118 L 822 119 L 824 119 L 825 120 L 835 120 L 836 119 L 837 119 L 838 118 L 839 118 L 843 114 L 843 113 L 845 111 L 845 110 L 846 109 L 846 108 L 847 107 L 847 106 L 848 105 L 848 104 L 849 103 L 849 102 L 850 101 L 850 100 L 852 98 L 852 97 L 853 96 L 853 95 L 855 93 L 855 92 L 857 90 L 857 89 L 859 87 L 859 86 L 867 78 L 868 78 L 871 75 L 872 75 L 874 73 L 875 73 L 879 69 L 879 68 L 880 67 L 880 59 L 879 58 L 879 57 L 875 53 L 874 53 L 873 52 L 872 52 L 871 51 L 869 51 L 868 50 L 866 50 L 865 49 L 861 49 L 860 48 L 858 48 L 857 47 L 856 47 L 852 43 L 852 42 L 851 41 L 851 33 L 852 32 L 852 26 L 853 25 L 853 12 L 852 11 L 852 9 L 851 8 L 851 7 L 848 4 L 847 4 L 846 3 L 840 3 L 839 4 L 838 4 L 831 11 L 831 12 L 822 21 L 821 21 L 820 22 L 818 22 L 817 23 L 808 23 L 807 22 L 806 22 L 801 17 L 801 15 L 800 14 L 800 5 L 799 4 L 799 -1 L 798 -2 L 798 -4 L 796 -6 L 796 -7 L 791 -12 Z"/>
        <path id="path10" fill="#facc15" stroke="#000000" stroke-width="5" d="M 285 -12 L 285 -10 L 284 -9 L 284 -8 L 283 -7 L 283 -6 L 282 -5 L 282 -4 L 281 -3 L 281 -1 L 280 0 L 280 1 L 279 2 L 279 3 L 276 6 L 276 7 L 275 8 L 274 8 L 272 10 L 270 10 L 269 11 L 264 11 L 263 12 L 246 12 L 245 13 L 242 13 L 241 14 L 240 14 L 239 15 L 238 15 L 237 16 L 236 16 L 229 23 L 229 24 L 227 26 L 227 27 L 225 29 L 225 30 L 223 32 L 223 33 L 222 34 L 222 35 L 221 36 L 221 37 L 219 39 L 219 40 L 218 41 L 218 42 L 216 44 L 216 45 L 214 47 L 214 48 L 212 50 L 212 51 L 209 54 L 209 55 L 205 59 L 205 60 L 199 66 L 198 66 L 197 67 L 196 67 L 195 68 L 188 68 L 186 66 L 185 66 L 182 63 L 182 62 L 181 61 L 181 60 L 180 59 L 180 56 L 179 55 L 179 45 L 180 44 L 180 30 L 179 29 L 179 27 L 178 26 L 178 25 L 177 24 L 177 23 L 175 21 L 175 20 L 166 11 L 165 11 L 164 10 L 159 10 L 158 11 L 157 11 L 152 16 L 152 17 L 150 19 L 150 20 L 149 21 L 149 22 L 148 23 L 148 24 L 147 25 L 147 26 L 146 27 L 146 29 L 145 30 L 145 32 L 144 33 L 144 35 L 143 36 L 143 38 L 142 39 L 142 42 L 141 43 L 141 46 L 140 47 L 140 49 L 139 50 L 139 52 L 138 53 L 138 55 L 137 56 L 137 58 L 136 59 L 136 62 L 137 63 L 137 65 L 138 66 L 138 67 L 141 70 L 141 71 L 151 81 L 152 81 L 162 91 L 162 92 L 163 93 L 163 94 L 164 95 L 164 96 L 165 97 L 165 99 L 166 100 L 166 104 L 167 105 L 167 107 L 166 108 L 166 114 L 165 115 L 165 117 L 164 118 L 164 119 L 163 120 L 163 121 L 162 122 L 162 123 L 152 133 L 151 133 L 149 135 L 148 135 L 147 136 L 146 136 L 145 137 L 144 137 L 143 138 L 142 138 L 141 139 L 140 139 L 139 140 L 138 140 L 137 141 L 135 141 L 134 142 L 132 142 L 131 143 L 130 143 L 129 144 L 127 144 L 126 145 L 124 145 L 123 146 L 121 146 L 120 147 L 119 147 L 118 148 L 116 148 L 115 149 L 114 149 L 113 150 L 111 150 L 110 151 L 109 151 L 108 152 L 106 152 L 105 153 L 104 153 L 103 154 L 101 154 L 100 155 L 99 155 L 98 156 L 97 156 L 95 158 L 94 158 L 92 160 L 91 160 L 87 164 L 87 165 L 86 166 L 86 167 L 85 168 L 85 169 L 84 170 L 84 173 L 83 174 L 83 178 L 84 179 L 84 181 L 85 182 L 85 183 L 86 184 L 86 185 L 88 187 L 88 188 L 97 197 L 97 198 L 99 200 L 99 201 L 100 202 L 100 205 L 101 206 L 101 211 L 100 212 L 100 215 L 99 216 L 99 217 L 98 218 L 98 219 L 97 220 L 97 221 L 94 224 L 94 225 L 84 235 L 84 236 L 83 237 L 128 237 L 131 234 L 131 233 L 135 229 L 135 228 L 136 227 L 136 226 L 137 225 L 137 224 L 138 223 L 138 222 L 139 221 L 139 218 L 140 217 L 140 209 L 139 208 L 139 204 L 138 203 L 138 201 L 137 200 L 137 198 L 136 197 L 136 195 L 135 194 L 135 192 L 134 191 L 134 190 L 133 189 L 133 187 L 132 186 L 132 184 L 131 183 L 131 180 L 130 179 L 130 165 L 131 164 L 131 163 L 133 161 L 140 161 L 141 162 L 145 162 L 146 163 L 152 163 L 153 164 L 154 163 L 159 163 L 160 162 L 161 162 L 162 161 L 163 161 L 164 160 L 165 160 L 172 153 L 172 152 L 182 142 L 182 141 L 191 132 L 191 131 L 193 129 L 193 128 L 194 127 L 194 111 L 193 110 L 193 98 L 194 97 L 194 93 L 195 92 L 195 91 L 196 90 L 196 89 L 197 88 L 197 87 L 198 86 L 198 85 L 201 82 L 202 82 L 203 81 L 204 81 L 205 80 L 206 80 L 207 79 L 209 79 L 210 78 L 214 78 L 215 77 L 218 77 L 219 76 L 221 76 L 222 75 L 225 75 L 226 74 L 227 74 L 228 73 L 230 73 L 231 72 L 232 72 L 233 71 L 234 71 L 235 70 L 236 70 L 237 69 L 238 69 L 239 68 L 240 68 L 241 67 L 243 67 L 244 66 L 246 66 L 247 65 L 255 65 L 256 66 L 257 66 L 258 67 L 259 67 L 261 69 L 262 69 L 265 72 L 265 73 L 268 76 L 268 77 L 270 79 L 270 80 L 272 82 L 272 83 L 274 85 L 274 86 L 275 87 L 275 88 L 277 90 L 277 91 L 279 93 L 279 94 L 281 96 L 281 97 L 284 100 L 284 101 L 288 105 L 288 106 L 294 112 L 294 113 L 296 115 L 296 116 L 297 117 L 297 118 L 298 119 L 298 120 L 299 121 L 299 123 L 300 124 L 300 127 L 301 128 L 301 133 L 302 134 L 302 146 L 303 147 L 303 159 L 304 160 L 304 162 L 306 164 L 307 164 L 308 165 L 310 165 L 311 166 L 314 166 L 315 167 L 317 167 L 319 169 L 319 174 L 318 175 L 318 177 L 317 178 L 317 180 L 316 181 L 316 182 L 315 183 L 315 185 L 314 186 L 314 188 L 313 189 L 313 191 L 312 192 L 312 194 L 311 195 L 311 197 L 310 198 L 310 199 L 309 200 L 309 202 L 308 203 L 308 204 L 306 206 L 306 207 L 304 209 L 304 210 L 302 212 L 302 213 L 298 217 L 298 218 L 295 221 L 295 222 L 293 224 L 293 225 L 291 227 L 291 228 L 290 229 L 290 230 L 289 231 L 289 232 L 287 234 L 287 235 L 286 236 L 286 237 L 343 237 L 342 236 L 342 235 L 340 233 L 340 231 L 339 230 L 339 224 L 340 223 L 340 222 L 341 221 L 341 220 L 342 219 L 342 218 L 346 214 L 346 213 L 352 207 L 352 206 L 355 203 L 355 202 L 357 200 L 357 199 L 359 197 L 359 196 L 360 195 L 360 194 L 361 193 L 361 192 L 362 191 L 362 190 L 363 189 L 363 188 L 364 187 L 364 186 L 365 185 L 365 184 L 366 183 L 366 182 L 367 181 L 367 180 L 368 179 L 368 178 L 369 177 L 369 176 L 373 172 L 382 172 L 383 173 L 385 173 L 386 174 L 387 174 L 388 175 L 389 175 L 394 180 L 394 181 L 395 182 L 395 183 L 396 184 L 396 186 L 397 187 L 397 194 L 398 195 L 398 206 L 399 207 L 399 212 L 400 213 L 400 216 L 401 217 L 401 218 L 402 219 L 402 220 L 403 221 L 403 222 L 405 224 L 405 225 L 412 232 L 412 233 L 415 236 L 415 237 L 442 237 L 442 234 L 443 233 L 443 231 L 444 230 L 444 229 L 445 228 L 445 227 L 446 226 L 446 225 L 447 224 L 447 223 L 448 222 L 448 221 L 449 220 L 449 219 L 451 217 L 451 216 L 452 215 L 452 214 L 453 213 L 453 212 L 454 211 L 454 210 L 455 209 L 455 208 L 456 207 L 456 206 L 457 205 L 457 199 L 456 198 L 456 197 L 435 176 L 435 175 L 431 171 L 431 170 L 429 168 L 429 167 L 428 166 L 428 165 L 427 164 L 427 163 L 426 162 L 426 161 L 425 160 L 425 156 L 424 155 L 424 132 L 423 131 L 423 126 L 422 125 L 422 117 L 421 116 L 421 115 L 422 114 L 422 109 L 423 108 L 423 106 L 424 105 L 424 104 L 425 103 L 425 102 L 426 101 L 426 100 L 429 97 L 429 96 L 436 89 L 437 89 L 439 87 L 440 87 L 441 86 L 442 86 L 443 85 L 445 85 L 446 84 L 448 84 L 449 83 L 452 83 L 453 82 L 457 82 L 458 81 L 478 81 L 479 82 L 481 82 L 482 83 L 483 83 L 484 84 L 485 84 L 487 86 L 487 87 L 488 88 L 488 89 L 489 90 L 489 94 L 488 95 L 488 98 L 487 99 L 487 100 L 486 101 L 486 103 L 485 104 L 485 105 L 484 106 L 484 107 L 483 108 L 483 109 L 481 111 L 481 112 L 480 113 L 480 114 L 478 116 L 478 117 L 475 120 L 475 121 L 471 125 L 471 126 L 467 130 L 467 131 L 466 132 L 466 133 L 465 134 L 465 136 L 464 137 L 464 140 L 465 141 L 465 143 L 466 144 L 466 145 L 467 146 L 467 147 L 470 150 L 470 151 L 472 153 L 472 154 L 474 156 L 474 157 L 475 158 L 475 159 L 476 160 L 476 161 L 477 162 L 477 164 L 478 165 L 478 175 L 477 176 L 477 178 L 476 179 L 476 181 L 475 182 L 475 183 L 474 184 L 474 185 L 473 186 L 473 187 L 472 188 L 472 190 L 471 191 L 471 192 L 470 193 L 470 200 L 474 204 L 474 205 L 479 210 L 479 211 L 480 212 L 480 213 L 481 214 L 481 215 L 482 216 L 482 218 L 483 219 L 483 225 L 484 226 L 484 237 L 528 237 L 527 236 L 527 234 L 526 233 L 526 232 L 525 231 L 525 229 L 524 228 L 524 227 L 523 226 L 523 224 L 522 223 L 522 222 L 521 221 L 521 220 L 519 218 L 519 217 L 509 207 L 508 207 L 503 202 L 503 201 L 501 199 L 501 198 L 500 197 L 500 196 L 499 195 L 499 194 L 498 193 L 498 191 L 497 190 L 497 175 L 498 174 L 498 173 L 499 172 L 499 170 L 501 168 L 501 167 L 507 161 L 508 161 L 510 159 L 511 159 L 512 158 L 513 158 L 514 157 L 515 157 L 516 156 L 520 156 L 521 155 L 525 155 L 526 156 L 529 156 L 530 157 L 532 157 L 533 158 L 534 158 L 536 160 L 537 160 L 538 161 L 539 161 L 543 165 L 544 165 L 549 170 L 549 171 L 552 174 L 552 175 L 553 176 L 553 177 L 554 178 L 554 179 L 555 180 L 555 183 L 556 184 L 556 190 L 557 191 L 557 199 L 558 200 L 558 203 L 559 204 L 559 205 L 560 206 L 560 207 L 561 208 L 561 209 L 564 212 L 564 213 L 568 217 L 568 218 L 570 220 L 570 221 L 572 223 L 572 224 L 573 225 L 573 227 L 574 228 L 574 230 L 575 231 L 575 237 L 644 237 L 644 236 L 643 235 L 643 227 L 642 226 L 642 211 L 641 210 L 641 202 L 640 201 L 640 198 L 639 197 L 639 195 L 638 194 L 638 193 L 636 191 L 636 190 L 634 188 L 633 188 L 631 186 L 630 186 L 629 185 L 628 185 L 627 184 L 625 184 L 624 183 L 618 183 L 617 182 L 609 182 L 608 181 L 604 181 L 603 180 L 600 180 L 599 179 L 598 179 L 597 178 L 595 178 L 593 176 L 592 176 L 591 175 L 590 175 L 584 169 L 584 168 L 583 167 L 583 166 L 582 165 L 582 164 L 581 163 L 581 152 L 582 151 L 582 150 L 583 149 L 583 148 L 584 147 L 584 146 L 589 141 L 590 141 L 592 139 L 594 139 L 595 138 L 598 138 L 599 137 L 610 137 L 611 138 L 614 138 L 615 139 L 618 139 L 619 140 L 620 140 L 621 141 L 623 141 L 624 142 L 625 142 L 626 143 L 627 143 L 628 144 L 630 144 L 631 145 L 638 145 L 639 144 L 640 144 L 642 142 L 642 141 L 643 140 L 643 138 L 644 137 L 644 131 L 643 130 L 643 127 L 642 126 L 642 123 L 641 122 L 641 119 L 640 118 L 640 114 L 639 113 L 639 104 L 640 103 L 640 100 L 641 99 L 641 97 L 642 96 L 642 95 L 643 94 L 643 93 L 644 92 L 644 91 L 645 90 L 645 89 L 647 87 L 647 86 L 649 84 L 649 83 L 651 81 L 651 80 L 652 79 L 652 78 L 654 76 L 654 75 L 655 74 L 655 73 L 656 72 L 656 70 L 657 69 L 657 66 L 658 65 L 658 61 L 657 60 L 657 58 L 653 54 L 652 54 L 651 53 L 650 53 L 649 52 L 647 52 L 646 51 L 644 51 L 643 50 L 640 50 L 639 49 L 636 49 L 635 48 L 632 48 L 631 47 L 628 47 L 627 46 L 625 46 L 624 45 L 622 45 L 621 44 L 620 44 L 619 43 L 618 43 L 617 42 L 616 42 L 615 41 L 614 41 L 612 39 L 611 39 L 607 35 L 607 34 L 606 33 L 606 32 L 605 31 L 605 27 L 606 26 L 606 25 L 607 24 L 607 23 L 612 18 L 613 18 L 616 15 L 617 15 L 619 13 L 620 13 L 622 11 L 623 11 L 625 9 L 626 9 L 628 7 L 629 7 L 631 5 L 632 5 L 634 3 L 635 3 L 637 1 L 638 1 L 642 -3 L 642 -4 L 643 -5 L 643 -6 L 644 -7 L 644 -12 L 576 -12 L 576 -4 L 575 -3 L 575 1 L 574 2 L 574 3 L 573 4 L 573 5 L 571 7 L 570 7 L 569 8 L 563 8 L 562 7 L 560 7 L 559 6 L 557 6 L 556 5 L 555 5 L 554 4 L 553 4 L 552 3 L 551 3 L 550 2 L 549 2 L 548 1 L 546 1 L 545 0 L 544 0 L 543 -1 L 542 -1 L 540 -3 L 539 -3 L 538 -4 L 537 -4 L 535 -6 L 534 -6 L 529 -11 L 529 -12 L 484 -12 L 484 -6 L 485 -5 L 485 -4 L 487 -2 L 488 -2 L 489 -1 L 491 -1 L 492 0 L 494 0 L 495 1 L 497 1 L 498 2 L 500 2 L 501 3 L 502 3 L 503 4 L 504 4 L 510 10 L 510 11 L 511 12 L 511 13 L 512 14 L 512 16 L 513 17 L 513 21 L 514 22 L 514 36 L 513 37 L 513 39 L 512 40 L 512 41 L 508 45 L 507 45 L 506 46 L 503 46 L 502 47 L 500 47 L 499 46 L 495 46 L 494 45 L 493 45 L 492 44 L 490 44 L 488 42 L 487 42 L 480 35 L 480 34 L 479 33 L 479 32 L 478 31 L 478 28 L 477 27 L 477 14 L 478 13 L 478 7 L 477 6 L 477 4 L 475 2 L 474 2 L 473 1 L 472 1 L 471 0 L 467 0 L 466 -1 L 462 -1 L 461 -2 L 458 -2 L 457 -3 L 454 -3 L 453 -4 L 452 -4 L 451 -5 L 449 -5 L 447 -7 L 446 -7 L 443 -10 L 443 -12 L 415 -12 L 416 -11 L 416 -9 L 415 -8 L 415 -7 L 411 -3 L 410 -3 L 408 -1 L 407 -1 L 404 2 L 403 2 L 398 7 L 398 8 L 396 10 L 396 11 L 395 12 L 395 14 L 394 15 L 394 18 L 393 19 L 393 23 L 392 24 L 392 30 L 391 31 L 391 36 L 390 37 L 390 39 L 386 43 L 385 43 L 384 44 L 380 44 L 379 45 L 359 45 L 358 44 L 353 44 L 352 43 L 350 43 L 349 42 L 348 42 L 344 38 L 344 37 L 343 36 L 343 34 L 342 33 L 342 26 L 343 25 L 343 21 L 344 20 L 344 17 L 345 16 L 345 14 L 346 13 L 346 10 L 347 9 L 347 7 L 348 6 L 348 4 L 349 3 L 349 -4 L 348 -5 L 348 -7 L 345 -10 L 345 -11 L 344 -12 Z"/>
        <path id="path11" fill="#facc15" stroke="#000000" stroke-width="5" d="M -10 -12 L -8 -10 L -8 -9 L -7 -8 L -7 1 L -8 2 L -8 4 L -9 5 L -9 6 L -10 7 L -10 8 L -11 9 L -11 10 L -13 12 L -13 13 L -15 15 L -15 16 L -17 18 L -17 19 L -18 20 L -18 21 L -20 23 L -20 24 L -21 25 L -21 27 L -22 28 L -22 29 L -23 30 L -23 34 L -24 35 L -24 48 L -23 49 L -23 53 L -22 54 L -22 56 L -21 57 L -21 59 L -20 60 L -20 62 L -19 63 L -19 64 L -18 65 L -18 66 L -17 67 L -17 68 L -16 69 L -16 70 L -14 72 L -14 73 L -13 74 L -13 75 L -12 76 L -12 77 L -11 78 L -11 79 L -10 80 L -10 82 L -9 83 L -9 92 L -10 93 L -10 95 L -11 96 L -11 97 L -12 98 L -12 99 L -13 100 L -13 102 L -14 103 L -14 104 L -15 105 L -15 107 L -16 108 L -16 109 L -17 110 L -17 112 L -18 113 L -18 114 L -19 115 L -19 117 L -20 118 L -20 120 L -21 121 L -21 123 L -22 124 L -22 126 L -23 127 L -23 129 L -24 130 L -24 131 L -25 132 L -25 134 L -26 135 L -26 137 L -27 138 L -27 140 L -28 141 L -28 142 L -29 143 L -29 144 L -30 145 L -30 146 L -31 147 L -31 148 L -32 149 L -32 150 L -34 152 L -34 153 L -37 156 L -37 235 L -36 235 L -35 234 L -17 234 L -16 235 L -14 235 L -13 236 L -12 236 L -11 237 L 49 237 L 56 230 L 56 229 L 58 227 L 58 226 L 59 225 L 59 224 L 60 223 L 60 221 L 61 220 L 61 217 L 62 216 L 62 205 L 61 204 L 61 201 L 60 200 L 60 199 L 59 198 L 59 197 L 57 195 L 57 194 L 46 183 L 46 182 L 45 181 L 45 180 L 44 179 L 44 177 L 43 176 L 43 173 L 44 172 L 44 170 L 45 169 L 45 167 L 47 165 L 47 164 L 51 160 L 51 159 L 68 142 L 68 141 L 72 137 L 73 137 L 76 134 L 77 134 L 78 133 L 79 133 L 80 132 L 82 132 L 83 131 L 96 131 L 97 132 L 101 132 L 102 133 L 106 133 L 107 134 L 115 134 L 116 133 L 116 132 L 117 131 L 117 129 L 118 128 L 118 115 L 117 114 L 117 108 L 116 107 L 116 102 L 115 101 L 115 92 L 116 91 L 116 89 L 117 88 L 117 87 L 118 86 L 118 85 L 119 84 L 119 83 L 120 82 L 120 81 L 122 79 L 122 78 L 124 76 L 124 75 L 126 73 L 126 72 L 127 71 L 127 70 L 129 68 L 129 67 L 130 66 L 130 64 L 131 63 L 131 61 L 130 60 L 130 59 L 129 58 L 129 57 L 128 56 L 128 55 L 124 51 L 124 50 L 118 44 L 117 44 L 105 32 L 105 31 L 103 29 L 103 27 L 102 26 L 102 19 L 103 18 L 103 16 L 104 15 L 104 14 L 106 12 L 106 11 L 111 6 L 111 5 L 123 -7 L 123 -8 L 127 -12 L 82 -12 L 81 -11 L 81 -10 L 79 -8 L 79 -7 L 78 -6 L 78 -5 L 77 -4 L 77 -2 L 76 -1 L 76 1 L 75 2 L 75 3 L 74 4 L 74 6 L 73 7 L 73 9 L 72 10 L 72 12 L 71 13 L 71 14 L 70 15 L 70 17 L 69 18 L 69 19 L 68 20 L 68 22 L 67 23 L 67 24 L 66 25 L 66 27 L 65 28 L 65 32 L 64 33 L 64 41 L 65 42 L 65 47 L 66 48 L 66 52 L 67 53 L 67 58 L 68 59 L 68 64 L 69 65 L 69 71 L 70 72 L 70 84 L 69 85 L 69 87 L 68 88 L 68 89 L 67 90 L 67 91 L 61 97 L 60 97 L 58 99 L 57 99 L 56 100 L 55 100 L 53 102 L 52 102 L 51 103 L 50 103 L 49 104 L 48 104 L 47 105 L 46 105 L 45 106 L 44 106 L 43 107 L 41 107 L 40 108 L 38 108 L 37 109 L 31 109 L 30 108 L 29 108 L 28 107 L 27 107 L 20 100 L 20 99 L 19 98 L 19 97 L 18 96 L 18 95 L 17 94 L 17 92 L 16 91 L 16 85 L 17 84 L 17 82 L 18 81 L 18 80 L 19 79 L 19 77 L 20 76 L 20 75 L 21 74 L 21 73 L 22 72 L 22 71 L 23 70 L 23 69 L 24 68 L 24 67 L 25 66 L 25 64 L 26 63 L 26 62 L 27 61 L 27 59 L 28 58 L 28 56 L 29 55 L 29 53 L 30 52 L 30 49 L 31 48 L 31 45 L 32 44 L 32 40 L 33 39 L 33 12 L 34 11 L 34 8 L 35 7 L 35 5 L 36 4 L 36 3 L 37 2 L 37 1 L 38 0 L 38 -1 L 41 -4 L 41 -5 L 48 -12 Z"/>
    </g>
</svg>
